<?xml version="1.0" standalone="no"?>
<!DOCTYPE svg PUBLIC "-//W3C//DTD SVG 20010904//EN"
 "http://www.w3.org/TR/2001/REC-SVG-20010904/DTD/svg10.dtd">
<svg version="1.0" xmlns="http://www.w3.org/2000/svg"
 width="2480.000000pt" height="2480.000000pt" viewBox="0 0 2480.000000 2480.000000"
 preserveAspectRatio="xMidYMid meet">

<g transform="translate(0.000000,2480.000000) scale(0.100000,-0.100000)"
fill="#000000" stroke="none">
<path d="M17970 22254 c-25 -2 -117 -9 -205 -14 -1153 -78 -2685 -419 -4106
-914 -119 -41 -296 -106 -395 -144 -950 -368 -1782 -888 -2384 -1492 -189
-189 -319 -361 -497 -655 -171 -284 -249 -464 -348 -805 -36 -125 -37 -125
-105 -195 -88 -91 -185 -242 -200 -308 -6 -27 -29 -89 -52 -136 -84 -177 -120
-278 -157 -446 -35 -162 -45 -285 -31 -405 l12 -107 -66 -120 c-36 -66 -77
-149 -90 -184 -82 -219 -65 -430 52 -652 74 -140 175 -217 318 -242 131 -23
169 -7 326 141 176 165 414 344 753 566 522 342 985 539 1845 788 569 164
1346 303 2005 359 327 28 1103 44 1434 31 809 -35 1419 -146 1951 -357 530
-210 987 -520 1353 -918 415 -451 639 -832 937 -1590 45 -115 93 -237 106
-270 81 -206 173 -582 219 -890 44 -299 68 -396 126 -521 40 -85 92 -140 162
-169 50 -21 131 -29 166 -17 20 7 31 7 31 1 0 -6 -16 -74 -36 -152 -171 -682
-404 -1311 -614 -1662 -52 -87 -140 -299 -140 -337 0 -12 3 -40 7 -61 l6 -38
39 72 c84 155 101 174 181 204 218 80 659 165 862 165 127 0 152 -7 183 -51
34 -47 111 -99 160 -106 26 -4 54 -22 94 -58 62 -58 99 -71 281 -100 54 -8
119 -25 145 -37 41 -20 49 -29 60 -68 8 -25 21 -69 29 -98 22 -72 66 -127 165
-205 174 -135 234 -217 258 -347 21 -114 -1 -229 -73 -385 -57 -124 -60 -185
-17 -360 30 -119 32 -139 27 -240 -15 -298 -126 -461 -429 -628 -37 -21 -118
-78 -180 -127 -186 -148 -374 -228 -558 -237 -95 -5 -112 -3 -185 21 -44 15
-127 53 -185 85 -175 97 -267 141 -373 176 -136 44 -157 48 -157 33 0 -17 78
-430 82 -433 2 -1 37 -19 78 -40 41 -21 122 -64 180 -96 137 -75 242 -117 360
-141 297 -62 692 58 995 301 55 44 122 92 150 107 196 104 392 275 471 409
156 268 202 604 123 896 l-21 80 30 67 c114 253 124 534 28 771 -49 121 -145
239 -290 358 -44 37 -84 69 -89 73 -4 3 -14 32 -22 65 -58 223 -240 359 -542
405 -126 19 -126 18 -70 197 25 82 71 254 102 383 154 631 210 854 270 1070
153 545 409 1532 509 1960 232 998 267 1523 146 2185 -17 91 -57 247 -96 375
-87 281 -177 480 -386 850 -64 113 -175 315 -248 450 -73 135 -249 439 -390
675 -444 742 -539 903 -677 1155 -254 460 -301 536 -570 919 -288 409 -377
516 -551 662 -167 139 -367 261 -522 318 -174 64 -447 127 -704 162 -131 18
-209 22 -581 24 -236 1 -450 1 -475 -1z m-3813 -1940 c-3 -3 -12 -4 -19 -1 -8
3 -5 6 6 6 11 1 17 -2 13 -5z m2480 -978 c982 -99 1663 -311 2822 -877 311
-152 360 -179 626 -342 517 -317 850 -556 1173 -841 408 -360 732 -808 911
-1259 166 -416 246 -787 258 -1189 9 -304 -25 -479 -122 -637 -55 -89 -76
-115 -166 -207 l-70 -71 -52 14 c-67 17 -121 17 -184 -2 -88 -26 -162 -115
-322 -384 -63 -106 -126 -197 -174 -251 -98 -112 -236 -236 -242 -218 -2 7
-13 69 -24 138 -59 366 -77 462 -122 644 -57 227 -128 451 -204 646 -165 424
-396 916 -532 1133 -335 531 -786 998 -1269 1314 -843 549 -1821 783 -3274
783 -799 0 -1333 -43 -2030 -161 -586 -99 -1074 -223 -1690 -428 -400 -134
-790 -306 -1106 -489 -331 -192 -854 -563 -1026 -728 -31 -30 -58 -54 -61 -54
-12 0 -48 106 -53 158 -9 80 13 151 91 292 112 205 124 251 105 418 -15 130
-7 223 35 387 27 109 105 293 172 406 52 88 209 308 232 326 236 183 818 475
1326 665 318 119 969 330 1381 447 791 224 1562 348 2404 385 211 9 1044 -3
1187 -18z"/>
<path d="M5100 18169 c-255 -29 -551 -130 -1095 -374 -510 -229 -774 -382
-1130 -655 -399 -306 -652 -563 -894 -907 -162 -230 -251 -471 -251 -677 0
-190 57 -309 193 -399 132 -89 346 -81 612 20 116 44 398 181 545 265 292 166
480 267 513 276 21 6 51 22 69 37 79 67 444 227 615 271 244 62 375 38 516
-95 202 -191 287 -457 266 -836 -3 -60 -9 -129 -13 -151 -7 -41 -7 -42 37 -67
112 -66 191 -166 240 -304 48 -132 61 -230 61 -443 -1 -221 -21 -370 -93 -665
-22 -88 -38 -161 -36 -163 3 -3 127 49 138 58 4 3 18 51 31 106 76 310 249
531 496 631 107 43 191 55 335 50 125 -5 165 -13 316 -63 13 -4 32 32 94 173
107 245 168 399 235 593 32 91 65 183 73 205 9 22 16 56 17 75 0 20 9 76 19
125 47 217 72 471 72 726 0 281 -34 529 -106 774 -26 90 -34 130 -29 161 7 51
-15 106 -61 154 -19 20 -55 75 -80 123 -53 103 -118 202 -206 312 -263 332
-654 545 -1043 569 -98 7 -100 7 -142 46 -65 60 -129 70 -314 49z m1032 -983
c76 -17 194 -69 255 -114 51 -38 103 -142 168 -336 87 -262 134 -589 121 -851
-6 -118 -25 -326 -31 -333 -1 -1 -33 5 -71 14 -136 32 -467 4 -724 -61 -114
-29 -206 -63 -301 -110 -38 -20 -74 -33 -79 -30 -6 4 -10 22 -10 42 0 96 -60
317 -127 462 -80 177 -265 393 -403 474 -36 20 -71 41 -79 46 -21 13 73 136
218 285 139 141 229 218 376 318 165 113 214 138 303 153 43 8 101 23 128 34
59 24 160 27 256 7z m-2803 -283 c-10 -43 -28 -152 -40 -243 -26 -205 -23
-432 8 -547 l19 -72 -285 -160 c-157 -87 -332 -182 -387 -209 -203 -101 -396
-172 -471 -172 -26 0 -32 4 -38 28 -9 41 20 169 59 260 119 282 486 690 927
1029 67 52 220 163 224 163 1 0 -6 -35 -16 -77z"/>
<path d="M5494 12485 c-4 -11 -53 -139 -109 -285 l-103 -265 -101 -12 c-56 -6
-186 -32 -289 -58 l-187 -46 -79 -151 c-183 -346 -335 -517 -562 -631 -84 -42
-202 -76 -460 -131 -134 -29 -246 -55 -248 -57 -6 -8 -393 -532 -488 -661 -54
-73 -114 -160 -134 -193 -19 -33 -58 -96 -86 -140 -142 -228 -259 -551 -315
-871 -25 -149 -23 -410 5 -532 61 -266 229 -433 479 -477 173 -30 415 42 633
188 201 135 472 403 693 686 39 50 197 278 197 285 0 3 28 49 62 103 74 118
232 387 315 538 160 289 455 877 585 1165 39 85 80 178 93 206 46 102 160 375
256 617 l99 248 -56 92 c-62 104 -134 248 -169 340 -19 50 -25 58 -31 42z
m-1060 -2377 c-113 -220 -342 -606 -492 -828 -158 -235 -251 -349 -427 -525
-172 -172 -288 -262 -420 -325 -151 -72 -231 -74 -303 -6 -54 50 -67 113 -66
306 0 177 18 281 84 494 52 169 68 203 99 214 15 5 75 45 132 89 147 112 267
184 474 284 344 166 779 325 898 328 l38 1 -17 -32z"/>
</g>
</svg>
