<?xml version="1.0" standalone="no"?>
<!DOCTYPE svg PUBLIC "-//W3C//DTD SVG 20010904//EN"
 "http://www.w3.org/TR/2001/REC-SVG-20010904/DTD/svg10.dtd">
<svg version="1.0" xmlns="http://www.w3.org/2000/svg"
 width="7472.000000pt" height="3508.000000pt" viewBox="0 0 7472.000000 3508.000000"
 preserveAspectRatio="xMidYMid meet">

<g transform="translate(0.000000,3508.000000) scale(0.100000,-0.100000)"
fill="#000000" stroke="none">
<path d="M45420 32861 c-29 -16 -166 -31 -375 -41 -400 -21 -763 -50 -985 -80
-80 -11 -183 -24 -230 -30 -241 -30 -683 -98 -750 -115 -54 -14 -283 -61 -370
-75 -25 -4 -128 -29 -230 -54 -102 -26 -232 -58 -290 -72 -58 -14 -136 -35
-175 -46 -38 -11 -110 -31 -160 -45 -49 -13 -155 -45 -235 -69 -80 -25 -181
-56 -225 -69 -149 -45 -599 -193 -775 -254 -96 -34 -220 -77 -275 -96 -55 -18
-145 -50 -200 -70 -55 -20 -113 -40 -130 -45 -16 -6 -39 -14 -50 -20 -11 -5
-46 -19 -77 -30 -59 -20 -97 -34 -248 -90 -47 -17 -105 -37 -130 -44 -25 -7
-58 -20 -75 -28 -16 -8 -73 -30 -125 -48 -52 -18 -135 -48 -185 -68 -49 -19
-144 -52 -210 -73 -66 -21 -160 -52 -210 -70 -49 -17 -121 -39 -160 -50 -38
-10 -101 -30 -140 -43 -92 -32 -266 -84 -335 -100 -30 -7 -86 -22 -125 -33
-74 -22 -272 -67 -340 -78 -22 -4 -60 -12 -85 -20 -64 -19 -299 -62 -403 -75
-48 -6 -97 -14 -110 -19 -12 -5 -58 -11 -102 -15 -44 -4 -105 -11 -135 -16
-94 -16 -310 -38 -430 -45 -63 -3 -194 -10 -290 -15 -246 -14 -509 -12 -835 5
-253 13 -531 37 -588 50 -12 3 -83 12 -157 20 -74 9 -164 20 -200 25 -286 44
-469 74 -550 90 -52 11 -162 31 -245 45 -82 15 -199 37 -260 50 -143 31 -251
53 -350 71 -44 8 -118 23 -165 34 -200 46 -273 61 -410 85 -80 14 -197 37
-260 50 -63 13 -148 29 -189 35 -41 6 -77 13 -82 15 -4 3 -43 10 -86 15 -78
10 -290 49 -413 76 -58 12 -185 31 -435 64 -44 6 -118 17 -165 25 -47 8 -159
21 -250 30 -91 9 -208 20 -260 25 -123 13 -639 42 -1250 70 -254 12 -578 6
-730 -14 -52 -7 -113 -11 -134 -8 -52 6 -290 -46 -323 -71 -17 -13 -16 -67 2
-103 22 -45 59 -207 149 -654 70 -344 87 -426 110 -530 14 -58 34 -152 46
-210 12 -58 34 -157 49 -220 16 -63 38 -155 49 -205 12 -49 55 -229 97 -400
99 -404 164 -672 224 -925 27 -113 57 -236 66 -275 9 -38 21 -90 26 -115 17
-85 105 -442 167 -675 16 -60 42 -157 57 -215 15 -58 45 -168 67 -245 22 -77
46 -165 53 -195 15 -60 52 -191 83 -285 10 -33 29 -96 42 -140 43 -153 93
-299 112 -332 21 -35 44 -41 80 -22 39 21 154 60 263 91 61 17 137 42 170 57
l60 26 325 -2 c531 -4 1064 -32 1280 -67 47 -8 123 -17 170 -20 181 -13 778
-89 940 -121 41 -8 116 -19 165 -25 115 -14 439 -67 485 -79 19 -5 78 -15 130
-21 52 -5 118 -15 145 -20 28 -6 102 -17 165 -25 63 -8 180 -23 260 -34 269
-38 374 -51 495 -61 66 -6 156 -15 200 -20 44 -5 190 -19 324 -30 134 -12 247
-23 251 -25 3 -2 123 -11 266 -20 142 -8 360 -22 484 -30 124 -8 446 -20 715
-25 270 -5 661 -15 870 -21 550 -17 1924 10 2370 46 429 34 571 46 585 50 8 3
103 16 210 30 309 39 473 62 655 95 94 16 197 34 230 40 155 27 289 53 385 75
58 13 161 35 230 50 69 14 154 33 190 41 135 33 268 65 345 83 218 52 254 62
310 80 33 11 92 29 130 39 170 47 264 76 325 97 36 13 106 35 155 50 98 30
240 79 293 101 18 8 39 14 47 14 7 0 64 20 126 45 62 25 117 45 122 45 5 0 60
20 122 45 62 25 139 55 171 66 133 48 163 59 239 89 44 17 105 40 135 50 30
10 87 30 125 45 70 26 241 84 305 103 19 6 80 27 135 47 103 37 190 65 283 90
30 9 61 19 70 24 10 5 58 21 107 36 50 14 128 38 175 51 47 14 114 34 150 44
36 11 97 29 135 40 39 12 111 33 160 46 50 13 140 37 200 54 124 34 173 46
368 89 75 16 142 33 147 36 5 3 42 12 82 20 120 22 398 81 498 105 19 5 82 16
140 25 58 9 137 23 175 31 61 12 260 45 605 99 52 8 145 19 205 25 61 6 148
17 195 25 116 19 387 52 545 65 72 6 173 15 225 21 90 9 159 16 415 39 61 6
198 19 305 30 262 26 527 47 745 60 198 11 249 15 405 29 58 5 164 13 235 16
195 9 223 13 257 44 26 23 28 29 19 52 -9 25 -356 373 -511 515 -36 32 -99 90
-140 129 -138 128 -218 200 -281 250 -51 41 -168 136 -215 174 -42 34 -270
179 -359 228 -188 104 -479 234 -655 292 -195 65 -251 82 -355 105 -66 15
-158 36 -205 48 -47 11 -119 26 -160 33 -41 8 -96 18 -121 24 -25 6 -97 17
-160 26 -155 20 -346 48 -514 74 -77 12 -198 31 -270 42 -71 11 -202 34 -290
50 -88 16 -168 29 -179 29 -38 0 -232 53 -248 68 -10 8 -18 23 -18 34 0 20 7
27 90 91 99 77 420 252 576 314 16 6 58 23 94 38 166 67 335 113 575 156 145
26 556 38 725 20 205 -20 501 -85 613 -133 76 -33 216 -106 262 -137 110 -74
154 -108 202 -152 80 -75 113 -64 113 37 0 36 -13 112 -30 180 -16 66 -30 127
-30 136 0 25 -60 236 -81 284 -93 219 -295 462 -564 680 -176 142 -249 196
-385 279 -19 12 -53 34 -76 48 -22 15 -43 27 -47 27 -4 0 -59 29 -122 65 -63
36 -126 70 -140 75 -13 5 -69 30 -122 55 -145 68 -171 80 -253 115 -41 17 -93
39 -115 50 -57 26 -242 95 -365 136 -58 19 -161 54 -230 78 -133 46 -167 56
-355 109 -161 46 -197 55 -285 72 -41 8 -115 23 -165 34 -49 11 -121 25 -160
31 -38 6 -99 17 -135 25 -36 7 -112 19 -170 25 -58 6 -141 15 -185 20 -44 5
-206 16 -360 25 -290 16 -431 31 -441 46 -7 11 -454 11 -474 0z m350 -1564
c168 -55 313 -173 422 -342 45 -71 77 -166 100 -292 21 -119 21 -125 5 -224
-9 -56 -15 -105 -12 -109 3 -4 38 -18 77 -30 135 -40 261 -151 325 -287 35
-73 37 -84 41 -198 5 -143 -9 -209 -69 -329 -61 -122 -142 -228 -279 -367
-106 -107 -332 -301 -420 -361 -14 -10 -50 -37 -81 -60 -95 -72 -297 -217
-399 -286 -30 -20 -89 -62 -130 -93 -167 -123 -214 -152 -479 -286 -146 -74
-188 -85 -211 -58 -24 29 -60 389 -75 760 -24 569 -54 1563 -55 1770 0 83 5
168 11 190 9 31 40 69 147 178 226 227 384 341 562 404 136 49 160 52 310 49
111 -3 149 -8 210 -29z m-1900 -472 c44 -22 111 -86 143 -136 41 -65 39 -186
-8 -639 -9 -80 -20 -188 -25 -240 -5 -52 -16 -147 -24 -210 -8 -63 -17 -162
-21 -220 -7 -116 -58 -489 -81 -590 -41 -180 -87 -354 -114 -435 -17 -49 -39
-115 -49 -145 -27 -79 -45 -121 -104 -239 -43 -87 -66 -119 -137 -191 -49 -50
-104 -96 -130 -108 -62 -29 -155 -52 -210 -52 -56 0 -180 41 -235 77 -106 70
-239 235 -305 378 -17 39 -38 81 -45 95 -7 14 -33 86 -58 160 -97 294 -208
777 -267 1169 -6 41 -13 78 -16 82 -2 4 -21 101 -41 216 -32 183 -36 229 -37
383 -1 173 -1 176 26 221 15 25 44 59 65 75 35 27 45 29 120 29 97 0 111 -9
161 -107 36 -71 64 -176 86 -323 9 -55 20 -116 25 -135 6 -19 15 -91 21 -160
16 -178 102 -548 227 -975 31 -104 62 -213 69 -241 8 -28 27 -80 43 -115 61
-134 127 -192 195 -169 45 15 110 72 131 116 22 46 50 244 64 449 17 236 30
356 56 490 13 66 26 158 30 205 3 47 13 144 22 215 11 95 13 171 8 285 -7 177
8 472 31 571 17 73 75 171 123 207 64 47 177 50 261 7z m-2594 -241 c64 -32
103 -73 140 -147 25 -48 27 -61 26 -172 -1 -113 -44 -514 -77 -720 -8 -49 -17
-115 -20 -145 -7 -58 -26 -177 -75 -450 -16 -91 -32 -221 -35 -290 -7 -134
-35 -345 -59 -438 -22 -83 -66 -375 -66 -433 0 -60 13 -68 73 -46 23 8 64 20
91 27 27 6 58 18 70 26 11 7 27 14 36 14 8 0 51 22 95 50 44 27 84 50 90 50 5
0 72 30 148 66 153 73 217 94 292 94 98 0 154 -65 140 -164 -18 -136 -90 -212
-335 -351 -47 -27 -105 -62 -130 -79 -25 -17 -94 -56 -155 -87 -414 -212 -532
-273 -550 -284 -12 -7 -57 -27 -100 -45 -107 -42 -218 -91 -230 -101 -19 -14
-120 -49 -144 -49 -14 0 -33 7 -43 17 -22 20 -23 94 -2 303 8 80 18 260 24
400 8 231 25 461 35 500 2 8 13 89 25 180 11 91 27 201 35 245 8 44 26 148 40
230 15 83 38 206 51 275 53 284 79 456 119 795 14 116 27 221 30 235 3 14 10
88 15 165 15 194 44 255 158 321 61 36 94 44 170 40 43 -3 79 -12 118 -32z
m-1383 -54 c113 -53 203 -158 242 -282 30 -96 31 -110 4 -165 -26 -54 -51 -67
-176 -93 -228 -49 -326 -148 -386 -390 -35 -142 -45 -235 -53 -473 -6 -202 7
-589 26 -749 36 -298 119 -640 183 -753 27 -48 80 -85 121 -85 45 1 135 65
174 125 69 106 79 115 126 115 84 0 179 -89 212 -199 35 -116 2 -215 -148
-438 -36 -54 -120 -127 -196 -170 -46 -25 -87 -39 -153 -50 -83 -14 -97 -14
-177 2 -192 38 -328 146 -463 370 -62 101 -72 123 -104 215 -145 416 -188 659
-216 1210 -24 490 15 889 117 1170 106 297 322 554 540 645 49 20 76 24 161
25 94 0 109 -3 166 -30z m-9824 -335 c60 -28 119 -79 153 -133 24 -39 50 -139
73 -282 9 -58 23 -144 31 -192 13 -84 39 -319 51 -478 8 -109 9 -110 101 -110
118 0 354 18 477 36 145 21 147 22 133 139 -20 179 8 518 54 650 49 141 109
219 203 268 114 58 254 36 345 -56 41 -41 97 -130 116 -186 30 -89 39 -266 35
-736 -6 -734 -5 -844 6 -1333 l11 -463 -23 -52 c-27 -62 -88 -125 -159 -164
-43 -23 -62 -27 -126 -27 -87 1 -136 21 -206 86 -83 76 -93 113 -124 443 -7
66 -20 163 -31 215 -41 208 -68 390 -75 498 -5 77 -11 115 -20 119 -7 2 -70
-3 -141 -12 -70 -9 -213 -19 -318 -22 -104 -3 -198 -10 -207 -14 -15 -8 -17
-52 -21 -486 -5 -500 -18 -710 -52 -806 -42 -120 -189 -216 -313 -205 -34 4
-80 17 -109 32 -65 32 -164 123 -198 182 -40 67 -73 217 -84 372 -29 395 -36
541 -35 682 7 901 6 988 -11 1190 -10 113 -18 277 -19 365 -1 144 2 166 22
220 13 33 29 78 35 100 15 51 129 169 178 184 57 17 183 5 248 -24z m6466
-198 c65 -33 164 -129 191 -187 56 -116 149 -433 164 -554 10 -84 13 -92 29
-81 12 7 121 137 198 236 134 174 292 273 404 254 58 -10 147 -95 184 -176 25
-57 27 -70 22 -143 -8 -122 -44 -200 -160 -343 -147 -182 -283 -342 -348 -410
-32 -34 -59 -68 -59 -77 0 -8 13 -22 28 -30 42 -22 173 -135 239 -208 108
-118 160 -183 224 -283 120 -186 154 -251 245 -475 45 -111 115 -394 116 -465
0 -193 -210 -351 -389 -291 -63 21 -165 87 -191 123 -34 49 -101 201 -133 301
-17 53 -42 133 -56 177 -14 44 -34 98 -44 120 -9 22 -32 74 -50 115 -58 136
-146 268 -204 306 -44 28 -47 10 -30 -137 22 -190 29 -379 17 -489 -19 -170
-42 -304 -64 -375 -38 -127 -128 -239 -234 -291 -79 -39 -184 -41 -257 -5 -56
27 -117 87 -154 151 -33 56 -37 151 -11 220 16 42 36 199 69 555 13 138 6 709
-10 820 -5 39 -15 140 -21 225 -6 85 -18 205 -26 265 -8 61 -19 157 -25 215
-5 58 -18 157 -29 220 -10 63 -21 138 -25 165 -4 28 -15 83 -26 124 -10 41
-19 107 -19 145 0 126 67 230 185 288 53 26 68 29 130 25 49 -3 85 -11 120
-30z m-942 -282 c54 -22 79 -41 136 -100 78 -83 96 -126 85 -203 -3 -26 -16
-64 -27 -84 -20 -36 -81 -88 -104 -88 -26 0 -131 -54 -161 -83 -72 -68 -109
-185 -132 -412 -6 -66 -18 -165 -26 -220 -17 -118 -33 -549 -29 -790 3 -180
29 -355 60 -401 26 -41 60 -57 103 -49 49 8 82 41 156 157 53 83 92 118 130
118 8 0 31 -13 49 -30 80 -70 122 -259 94 -422 -22 -125 -89 -259 -166 -330
-199 -184 -478 -182 -678 5 -107 100 -184 223 -227 364 -121 389 -165 943
-111 1393 20 166 53 372 63 401 5 13 13 49 17 79 30 219 162 486 301 609 133
117 308 149 467 86z m-1879 -161 c69 -40 137 -101 180 -164 94 -139 192 -385
271 -680 14 -52 37 -138 51 -190 56 -204 86 -350 144 -680 33 -188 35 -241 15
-393 -12 -92 -22 -126 -67 -225 -43 -95 -66 -131 -125 -197 -91 -103 -159
-141 -233 -132 -84 10 -169 75 -201 154 -8 19 -11 110 -10 272 2 269 -2 307
-31 322 -23 12 -424 28 -453 18 -21 -7 -38 -41 -90 -174 -34 -85 -122 -221
-175 -269 -41 -37 -128 -84 -192 -105 -29 -10 -46 -10 -72 -1 -39 13 -111 86
-131 133 -20 50 -38 175 -31 221 10 60 73 316 92 367 16 46 42 147 93 364 29
120 47 192 103 410 72 281 208 625 304 771 41 63 141 157 197 186 63 32 93 37
197 34 90 -3 99 -5 164 -42z"/>
<path d="M45290 30765 c-96 -22 -158 -46 -183 -73 -22 -23 -22 -29 -22 -260 1
-243 19 -475 39 -491 21 -18 169 52 268 127 51 38 104 81 118 95 41 41 109
171 120 227 26 139 1 282 -60 334 -51 42 -185 62 -280 41z"/>
<path d="M45930 29756 c-31 -17 -233 -96 -363 -143 -159 -57 -370 -181 -432
-255 -26 -30 -27 -36 -21 -103 23 -249 40 -382 52 -394 10 -12 26 -6 101 34
78 42 148 88 163 106 3 3 28 24 56 45 86 66 285 244 367 328 48 50 91 105 110
144 18 34 44 86 59 115 29 56 35 106 16 125 -16 16 -77 15 -108 -2z"/>
<path d="M33517 28828 c-51 -112 -145 -444 -133 -474 4 -9 21 -14 53 -14 26 0
96 -10 155 -22 143 -28 147 -25 118 88 -11 43 -36 122 -55 174 -20 52 -50 137
-67 188 -17 50 -36 92 -43 92 -7 0 -19 -15 -28 -32z"/>
<path d="M23368 27653 c12 -2 30 -2 40 0 9 3 -1 5 -23 4 -22 0 -30 -2 -17 -4z"/>
<path d="M23693 27653 c9 -2 25 -2 35 0 9 3 1 5 -18 5 -19 0 -27 -2 -17 -5z"/>
<path d="M21991 26326 c-10 -11 -8 -15 6 -18 10 -2 28 -2 41 0 18 4 20 7 11
18 -15 18 -43 18 -58 0z"/>
<path d="M22695 26330 c-11 -18 5 -30 40 -30 40 0 53 15 26 29 -25 14 -58 14
-66 1z"/>
<path d="M21933 26293 c-7 -3 -13 -11 -13 -20 0 -17 41 -14 47 3 4 13 -16 23
-34 17z"/>
<path d="M22800 26280 c0 -10 41 -30 61 -30 15 0 10 27 -7 34 -24 9 -54 7 -54
-4z"/>
<path d="M21864 26235 c-19 -14 -18 -14 4 -15 13 0 22 6 22 15 0 19 -1 19 -26
0z"/>
<path d="M22911 26232 c15 -24 41 -33 60 -21 12 8 11 11 -1 19 -8 5 -20 10
-27 10 -6 0 -19 3 -28 6 -15 6 -15 4 -4 -14z"/>
<path d="M21825 26191 c-6 -11 9 -23 19 -14 9 9 7 23 -3 23 -6 0 -12 -4 -16
-9z"/>
<path d="M22992 26183 c-19 -8 -4 -23 24 -23 16 0 24 5 22 13 -5 13 -26 18
-46 10z"/>
<path d="M21790 26139 c-12 -22 -8 -35 8 -25 13 8 22 46 11 46 -4 0 -13 -9
-19 -21z"/>
<path d="M23208 26033 c7 -3 16 -2 19 1 4 3 -2 6 -13 5 -11 0 -14 -3 -6 -6z"/>
<path d="M23240 26012 c0 -5 9 -17 20 -27 22 -20 26 -14 10 16 -11 19 -30 26
-30 11z"/>
<path d="M21691 25944 c0 -11 3 -14 6 -6 3 7 2 16 -1 19 -3 4 -6 -2 -5 -13z"/>
<path d="M22726 25865 c4 -8 8 -15 10 -15 2 0 4 7 4 15 0 8 -4 15 -10 15 -5 0
-7 -7 -4 -15z"/>
<path d="M24261 25749 c-17 -7 -21 -13 -14 -20 15 -15 47 -7 51 14 4 19 -2 20
-37 6z"/>
<path d="M23490 25736 c0 -7 9 -25 20 -39 11 -14 25 -49 30 -79 16 -81 21 -93
31 -77 17 27 10 98 -11 119 -11 11 -26 35 -34 55 -15 35 -36 48 -36 21z"/>
<path d="M21640 25525 c0 -131 4 -205 10 -205 7 0 10 74 9 205 0 119 -4 205
-10 205 -5 0 -9 -86 -9 -205z"/>
<path d="M24182 25703 c-7 -2 -17 -13 -22 -23 -9 -17 -7 -18 20 -10 37 11 50
19 50 31 0 9 -26 11 -48 2z"/>
<path d="M23545 25438 c-4 -15 -3 -32 1 -39 11 -19 26 29 15 49 -8 14 -10 13
-16 -10z"/>
<path d="M23227 25179 c-89 -21 -104 -50 -19 -37 65 9 102 23 102 38 0 12 -30
12 -83 -1z"/>
<path d="M23075 25133 c-11 -2 -30 -6 -43 -9 -35 -7 -16 -24 27 -24 24 0 48 8
62 20 l24 19 -25 0 c-14 -1 -34 -3 -45 -6z"/>
<path d="M22913 25080 c-39 -16 -27 -33 18 -27 46 6 54 11 44 26 -7 13 -31 13
-62 1z"/>
<path d="M21693 25005 c0 -22 2 -30 4 -17 2 12 2 30 0 40 -3 9 -5 -1 -4 -23z"/>
<path d="M22329 24874 c-11 -14 -8 -15 31 -12 24 2 45 9 48 16 6 18 -63 15
-79 -4z"/>
<path d="M22243 24840 c-28 -11 -30 -30 -4 -30 31 0 73 19 66 30 -7 12 -32 12
-62 0z"/>
<path d="M20143 24775 c0 -27 2 -38 4 -22 2 15 2 37 0 50 -2 12 -4 0 -4 -28z"/>
<path d="M22130 24788 c-24 -11 -25 -12 -3 -15 12 -2 34 3 50 11 l28 15 -25 0
c-14 0 -36 -5 -50 -11z"/>
<path d="M21780 24771 c0 -11 4 -22 9 -25 11 -7 20 14 13 32 -7 19 -22 14 -22
-7z"/>
<path d="M21998 24733 c6 -2 18 -2 25 0 6 3 1 5 -13 5 -14 0 -19 -2 -12 -5z"/>
<path d="M23921 24522 c-11 -20 1 -48 17 -38 5 3 12 14 15 25 6 26 -20 36 -32
13z"/>
<path d="M23937 24353 c-11 -10 -8 -73 3 -73 6 0 10 18 10 40 0 41 -2 45 -13
33z"/>
<path d="M24220 24350 c-13 -8 -12 -10 3 -10 9 0 17 5 17 10 0 12 -1 12 -20 0z"/>
<path d="M24280 24300 c0 -5 5 -10 11 -10 5 0 7 5 4 10 -3 6 -8 10 -11 10 -2
0 -4 -4 -4 -10z"/>
<path d="M23943 24205 c0 -38 2 -53 4 -32 2 20 2 52 0 70 -2 17 -4 1 -4 -38z"/>
<path d="M24350 24256 c0 -20 19 -31 32 -18 7 7 3 14 -11 21 -17 10 -21 9 -21
-3z"/>
<path d="M24672 24058 c5 -15 68 -24 68 -10 0 12 -24 22 -52 22 -11 0 -18 -5
-16 -12z"/>
<path d="M24762 24008 c7 -20 58 -23 58 -4 0 11 -10 16 -31 16 -20 0 -29 -4
-27 -12z"/>
<path d="M20143 23940 c0 -36 2 -50 4 -32 2 17 2 47 0 65 -2 17 -4 3 -4 -33z"/>
<path d="M24850 23971 c0 -14 10 -18 55 -26 l40 -6 -24 20 c-24 21 -71 29 -71
12z"/>
<path d="M24989 23917 c7 -9 27 -17 44 -17 40 0 24 17 -23 26 -32 7 -34 6 -21
-9z"/>
<path d="M24030 23841 c0 -11 5 -23 10 -26 6 -3 10 3 10 14 0 11 -4 23 -10 26
-5 3 -10 -3 -10 -14z"/>
<path d="M25353 23813 c9 -2 23 -2 30 0 6 3 -1 5 -18 5 -16 0 -22 -2 -12 -5z"/>
<path d="M25516 23781 c-12 -18 19 -26 123 -29 71 -3 102 -1 97 6 -11 18 -211
38 -220 23z"/>
<path d="M24082 23743 c-12 -22 -7 -53 9 -53 15 0 20 24 11 50 l-9 24 -11 -21z"/>
<path d="M24120 23647 c0 -13 9 -32 20 -42 20 -18 20 -17 20 8 0 22 -22 57
-36 57 -2 0 -4 -11 -4 -23z"/>
<path d="M25886 23644 c-3 -9 -6 -27 -6 -41 0 -21 2 -24 15 -13 16 14 20 56 6
64 -5 3 -12 -1 -15 -10z"/>
<path d="M29271 23604 c0 -11 3 -14 6 -6 3 7 2 16 -1 19 -3 4 -6 -2 -5 -13z"/>
<path d="M25862 23554 c-19 -21 -32 -61 -32 -101 0 -29 2 -33 14 -24 12 10 41
130 33 137 -1 1 -8 -4 -15 -12z"/>
<path d="M24231 23474 c0 -11 3 -14 6 -6 3 7 2 16 -1 19 -3 4 -6 -2 -5 -13z"/>
<path d="M25785 23390 c-7 -23 2 -60 15 -60 13 0 24 46 16 65 -8 21 -23 19
-31 -5z"/>
<path d="M24553 23133 c9 -9 19 -14 23 -11 10 10 -6 28 -24 28 -15 0 -15 -1 1
-17z"/>
<path d="M31702 22960 c0 -14 2 -19 5 -12 2 6 2 18 0 25 -3 6 -5 1 -5 -13z"/>
<path d="M24850 22951 c0 -9 34 -21 60 -21 11 1 10 4 -4 15 -22 16 -56 20 -56
6z"/>
<path d="M25493 22953 c-7 -2 -13 -9 -13 -15 0 -14 43 -6 48 10 4 12 -12 15
-35 5z"/>
<path d="M24940 22906 c0 -9 17 -16 46 -21 25 -3 64 -13 87 -22 55 -20 232
-23 266 -4 13 7 45 18 70 25 25 6 46 16 46 21 0 17 -45 17 -71 0 -37 -24 -57
-27 -184 -26 -96 0 -121 3 -155 20 -46 24 -105 28 -105 7z"/>
<path d="M31050 22329 c0 -5 5 -7 10 -4 6 3 10 8 10 11 0 2 -4 4 -10 4 -5 0
-10 -5 -10 -11z"/>
<path d="M30148 22083 c7 -3 16 -2 19 1 4 3 -2 6 -13 5 -11 0 -14 -3 -6 -6z"/>
<path d="M25093 21703 c32 -2 81 -2 110 0 29 2 3 3 -58 3 -60 0 -84 -1 -52 -3z"/>
<path d="M25503 21703 c32 -2 81 -2 110 0 29 2 3 3 -58 3 -60 0 -84 -1 -52 -3z"/>
<path d="M29878 21683 c7 -3 16 -2 19 1 4 3 -2 6 -13 5 -11 0 -14 -3 -6 -6z"/>
<path d="M30098 21683 c7 -3 16 -2 19 1 4 3 -2 6 -13 5 -11 0 -14 -3 -6 -6z"/>
<path d="M24368 21443 c6 -2 18 -2 25 0 6 3 1 5 -13 5 -14 0 -19 -2 -12 -5z"/>
<path d="M33727 20674 c-12 -12 -135 -269 -162 -339 -15 -38 -53 -131 -84
-205 -32 -74 -72 -173 -90 -220 -18 -47 -39 -96 -46 -110 -7 -14 -15 -37 -19
-52 -3 -15 -26 -70 -51 -122 -25 -51 -45 -101 -45 -109 0 -8 34 -33 78 -56 42
-23 105 -59 139 -79 68 -41 233 -177 233 -193 0 -5 6 -9 14 -9 18 0 24 115 36
655 6 231 13 516 16 633 6 196 3 227 -19 206z"/>
<path d="M45995 20470 c3 -5 8 -10 11 -10 2 0 4 5 4 10 0 6 -5 10 -11 10 -5 0
-7 -4 -4 -10z"/>
<path d="M46040 20430 c0 -7 12 -29 28 -49 34 -44 72 -114 72 -132 0 -7 6 -20
14 -28 49 -54 52 -435 5 -613 -19 -71 -54 -271 -114 -653 -9 -55 -22 -134 -30
-175 -8 -41 -12 -77 -7 -81 4 -4 36 10 71 31 35 22 83 42 109 46 28 4 55 16
70 31 21 21 23 30 18 71 -4 26 -8 295 -10 597 -4 471 -7 561 -21 625 -25 107
-98 242 -169 309 -20 19 -36 28 -36 21z"/>
<path d="M19892 19885 c0 -16 2 -22 5 -12 2 9 2 23 0 30 -3 6 -5 -1 -5 -18z"/>
<path d="M19486 19699 c-10 -51 -7 -199 4 -199 6 0 10 45 10 115 0 63 -2 115
-4 115 -2 0 -6 -14 -10 -31z"/>
<path d="M31900 19533 c-26 -5 -138 -44 -252 -87 -92 -35 -265 -123 -308 -156
-19 -15 -61 -43 -93 -63 -79 -47 -179 -137 -392 -352 -153 -154 -391 -409
-462 -495 -12 -14 -48 -56 -80 -95 -33 -38 -74 -95 -91 -126 -18 -31 -39 -62
-47 -69 -26 -22 -36 -72 -25 -131 28 -143 50 -343 59 -539 17 -324 22 -395 30
-409 12 -20 19 7 42 158 23 158 64 362 77 388 5 10 13 38 17 63 19 112 178
482 278 645 17 28 49 79 71 115 23 36 46 73 51 82 20 33 157 215 203 270 151
180 397 412 542 511 30 21 75 53 99 71 24 18 69 46 100 61 31 15 94 50 141 77
47 27 91 53 99 57 36 18 -3 35 -59 24z"/>
<path d="M19481 19303 c1 -65 5 -129 9 -143 5 -15 8 31 9 118 1 88 -3 142 -9
142 -6 0 -10 -45 -9 -117z"/>
<path d="M43532 19237 c-13 -23 -56 -105 -96 -182 -182 -352 -216 -400 -334
-479 -183 -121 -449 -116 -629 12 -57 40 -119 60 -275 86 -169 29 -370 35
-515 16 -355 -46 -375 -51 -494 -112 -166 -84 -215 -170 -354 -618 -23 -72
-65 -306 -75 -415 -12 -117 -1 -253 35 -462 66 -380 155 -497 439 -580 84 -25
104 -27 276 -27 159 1 205 5 325 28 166 32 213 46 314 96 94 47 155 60 276 60
146 0 255 -29 360 -95 99 -62 220 -218 261 -335 48 -134 105 -239 132 -240 8
0 12 19 12 63 0 34 7 98 15 142 8 44 22 157 31 250 8 94 19 202 23 240 20 164
33 257 51 375 10 69 24 170 29 225 17 173 49 427 65 515 8 47 17 114 21 150 4
36 13 117 20 180 8 63 19 171 25 240 7 69 16 145 21 170 16 70 37 263 44 395
4 66 13 151 21 188 15 74 19 157 7 157 -5 0 -19 -19 -31 -43z"/>
<path d="M23623 18859 c-13 -22 -27 -84 -42 -179 -12 -80 -26 -172 -31 -205
-17 -113 -35 -310 -34 -375 2 -93 -15 -408 -27 -520 -6 -52 -24 -158 -40 -235
-17 -77 -32 -153 -35 -170 -3 -16 -16 -73 -29 -125 -25 -104 -46 -211 -49
-250 -1 -22 3 -25 34 -24 32 2 83 16 170 49 19 7 55 20 80 28 25 8 99 33 165
55 66 22 147 48 180 58 l60 19 -3 110 c-4 151 -46 402 -117 715 -33 145 -63
286 -71 340 -4 25 -13 63 -21 85 -8 22 -27 98 -43 168 -16 71 -41 152 -54 181
-33 69 -45 126 -46 207 0 38 -6 73 -13 83 -13 17 -15 16 -34 -15z"/>
<path d="M38520 18780 c-15 -15 -19 -28 -14 -48 17 -75 25 -99 39 -117 12 -17
16 -18 24 -6 8 12 51 169 51 186 0 3 -18 5 -40 5 -27 0 -47 -7 -60 -20z"/>
<path d="M53110 18620 c0 -8 7 -50 15 -93 19 -100 19 -254 0 -336 -9 -35 -36
-131 -61 -215 -103 -344 -121 -404 -149 -491 -9 -27 -24 -77 -35 -110 -10 -33
-32 -96 -48 -140 -17 -44 -36 -96 -43 -115 -6 -19 -18 -51 -26 -71 -8 -20 -13
-47 -11 -60 3 -24 4 -24 98 -21 52 2 122 -1 155 -6 95 -16 189 -23 202 -14 16
10 26 354 27 922 1 483 -3 530 -58 664 -25 60 -66 114 -66 86z"/>
<path d="M47860 18544 c0 -3 20 -35 44 -72 56 -86 78 -131 107 -217 41 -123
33 -235 -42 -605 -10 -52 -23 -126 -29 -165 -5 -38 -15 -97 -21 -130 -19 -106
-28 -207 -29 -320 0 -60 -5 -148 -10 -195 -12 -93 -3 -440 11 -440 16 0 63
210 79 355 6 55 16 120 22 145 5 25 16 95 23 155 8 61 20 151 28 200 8 50 20
137 27 195 35 311 88 473 193 585 21 23 37 50 37 64 0 55 -128 251 -205 313
-62 51 -168 118 -186 118 -10 0 -21 5 -24 10 -7 11 -25 14 -25 4z"/>
<path d="M38430 18148 c-51 -80 -124 -182 -156 -217 -12 -12 -53 -61 -90 -108
-38 -47 -89 -109 -114 -137 -25 -28 -66 -76 -90 -106 -112 -139 -258 -298
-417 -457 -46 -45 -73 -80 -73 -93 0 -12 24 -50 53 -83 30 -34 93 -111 142
-172 106 -132 128 -157 359 -399 100 -103 226 -228 282 -276 110 -96 221 -180
236 -180 14 0 5 42 -27 125 -15 39 -33 95 -40 125 -7 30 -22 91 -33 135 -58
238 -77 428 -77 785 0 385 16 574 77 925 27 152 32 205 22 205 -5 0 -29 -33
-54 -72z"/>
<path d="M50340 17837 c0 -13 9 -44 19 -68 10 -24 24 -77 31 -116 6 -40 14
-73 16 -73 10 0 42 87 54 142 13 68 5 89 -42 111 -66 30 -78 31 -78 4z"/>
<path d="M20527 17643 c-13 -22 -39 -229 -34 -271 3 -26 10 -90 17 -142 6 -52
24 -204 41 -338 16 -133 34 -284 39 -335 5 -50 14 -130 19 -177 6 -47 15 -150
20 -230 6 -80 15 -201 21 -270 22 -284 41 -594 44 -735 10 -398 62 -963 122
-1313 14 -81 29 -174 35 -207 6 -33 14 -100 19 -150 10 -102 50 -333 73 -415
9 -30 18 -77 21 -105 6 -48 25 -145 62 -320 9 -44 25 -120 34 -170 55 -279
128 -535 177 -613 156 -252 220 -319 397 -416 77 -42 162 -79 222 -97 91 -27
108 -29 273 -29 142 0 189 4 242 19 51 14 86 18 156 14 133 -8 147 -1 288 141
260 263 534 506 647 576 29 18 82 52 118 75 135 89 213 137 278 171 210 111
231 131 272 259 13 39 29 76 35 84 19 20 43 2 74 -55 33 -62 50 -64 156 -24
183 71 287 105 470 154 104 28 110 31 110 46 0 8 -18 19 -41 26 -99 29 -180
89 -279 209 -83 101 -103 180 -144 570 -7 61 -16 133 -22 160 -5 28 -15 143
-23 257 -8 114 -17 211 -20 217 -4 5 -13 77 -21 158 -8 81 -20 186 -26 233 -6
47 -12 120 -14 163 -2 81 -13 103 -45 91 -46 -18 -233 -77 -280 -89 -141 -35
-556 -212 -567 -242 -3 -8 0 -40 6 -71 54 -257 106 -486 136 -602 19 -72 53
-259 71 -385 8 -54 18 -113 24 -130 15 -48 62 -324 68 -399 11 -160 -85 -358
-228 -470 -67 -53 -170 -104 -226 -113 -22 -3 -56 -14 -76 -24 -21 -11 -43
-19 -50 -19 -7 0 -31 -10 -53 -21 -22 -12 -55 -27 -75 -34 -19 -7 -133 -60
-252 -119 -120 -58 -221 -106 -224 -106 -3 0 -51 -22 -106 -50 -149 -74 -186
-83 -347 -78 -128 3 -140 5 -204 35 -129 61 -225 152 -286 268 -29 57 -46 137
-76 358 -4 27 -13 67 -21 90 -38 105 -82 330 -124 622 -11 77 -25 163 -30 190
-9 44 -20 111 -61 385 -21 145 -80 466 -93 515 -8 28 -17 75 -21 105 -4 30
-11 62 -16 71 -13 26 -66 234 -83 329 -9 47 -23 110 -31 140 -8 30 -15 66 -15
80 0 14 -7 47 -15 74 -8 27 -24 113 -35 190 -12 78 -23 148 -25 156 -2 8 -9
67 -15 130 -13 149 -46 387 -71 520 -11 58 -27 148 -35 200 -8 52 -21 120 -29
150 -15 59 -48 198 -95 405 -30 130 -61 231 -120 380 -17 44 -50 139 -72 210
-41 130 -51 154 -61 138z"/>
<path d="M33704 17389 c-66 -73 -325 -135 -417 -100 -14 6 -60 17 -102 26
-172 35 -332 -21 -481 -169 -96 -96 -139 -170 -160 -273 -14 -64 -14 -85 -3
-136 25 -120 135 -208 285 -228 122 -15 114 -19 221 89 73 72 116 106 168 132
68 34 72 35 215 38 156 4 202 -4 260 -44 19 -13 46 -25 60 -26 24 -3 25 0 24
42 -1 25 -4 182 -7 350 -3 168 -6 308 -6 313 -2 15 -39 6 -57 -14z"/>
<path d="M26300 17178 c0 -12 4 -47 10 -77 5 -31 17 -105 25 -166 9 -60 23
-153 31 -205 8 -52 21 -149 29 -215 8 -66 21 -158 29 -205 22 -121 64 -391 76
-484 5 -43 13 -82 16 -88 7 -11 54 29 54 46 1 32 165 250 244 323 31 29 56 56
56 62 0 14 -29 41 -45 41 -17 0 -96 63 -163 131 -53 53 -122 159 -137 209 -4
14 -13 34 -19 45 -15 23 -65 175 -96 290 -38 141 -95 315 -102 315 -5 0 -8
-10 -8 -22z"/>
<path d="M36101 15112 c-1 -168 -11 -287 -32 -349 -45 -139 -185 -291 -319
-345 -54 -23 -65 -23 -605 -29 -352 -4 -566 -10 -595 -17 -25 -7 -63 -16 -85
-22 -61 -15 -119 -12 -219 11 -159 37 -247 94 -379 244 l-35 40 -79 -28 c-43
-16 -132 -44 -198 -63 -66 -19 -154 -45 -195 -59 -252 -81 -579 -119 -910
-104 -346 15 -494 44 -790 155 -136 52 -387 171 -421 200 -37 33 -46 19 -51
-78 -6 -106 -32 -178 -104 -288 -62 -94 -135 -150 -303 -232 -80 -38 -163 -79
-183 -89 -20 -10 -42 -19 -48 -19 -6 0 -35 -11 -63 -24 -29 -12 -101 -44 -162
-70 -60 -26 -137 -61 -170 -76 -78 -37 -123 -56 -215 -88 -72 -26 -84 -27
-275 -27 -195 0 -202 1 -268 28 -70 28 -169 86 -182 106 -3 6 -19 18 -35 26
-27 14 -30 13 -87 -29 -222 -163 -554 -300 -838 -344 -229 -37 -318 -36 -580
4 -189 29 -343 81 -510 171 -46 25 -186 123 -228 160 -63 56 -68 50 -61 -79 8
-134 -6 -204 -64 -317 -42 -83 -123 -166 -218 -224 -72 -43 -200 -73 -280 -63
-74 9 -190 -20 -354 -89 -74 -31 -189 -79 -255 -107 -66 -27 -139 -56 -161
-63 -52 -17 -114 -56 -114 -72 0 -16 7 -16 110 2 132 23 631 21 875 -5 135
-13 202 -16 231 -10 40 9 212 106 284 160 19 15 52 36 72 49 l37 22 228 -14
c588 -37 787 -16 1203 125 113 38 219 72 235 74 23 4 45 -3 89 -30 32 -19 75
-40 95 -47 20 -6 70 -24 112 -39 168 -64 464 -105 644 -90 61 5 182 14 270 19
209 13 276 25 421 72 66 21 126 39 134 39 20 0 303 143 395 200 44 27 115 71
158 97 127 78 307 200 377 253 73 57 70 57 200 16 142 -45 150 -46 310 -47
145 0 236 7 405 31 39 6 210 14 380 19 230 6 324 13 365 24 85 24 212 66 245
81 70 32 188 67 205 61 11 -3 37 -21 58 -38 70 -59 298 -163 412 -189 109 -24
421 -35 570 -19 58 6 159 16 225 21 131 12 282 39 415 75 47 13 103 26 125 30
22 4 45 11 50 15 6 4 55 26 110 49 55 24 129 58 165 76 116 58 285 146 295
155 28 23 128 70 149 70 16 0 47 -24 97 -76 65 -66 111 -102 242 -190 49 -32
168 -92 207 -103 19 -6 69 -22 110 -36 120 -41 204 -56 375 -65 283 -16 500
15 740 105 86 32 107 52 145 131 49 103 165 219 280 278 70 36 214 74 340 90
63 8 189 28 280 45 275 53 493 79 756 92 333 16 505 5 614 -41 174 -72 276
-164 355 -319 29 -59 42 -131 51 -290 6 -103 10 -127 26 -143 12 -12 26 -17
36 -13 9 4 53 11 97 16 204 22 268 31 375 54 63 13 133 30 155 38 22 8 59 18
82 22 23 3 108 31 190 62 81 30 171 63 198 73 43 15 189 78 290 125 17 7 113
54 214 104 101 50 189 91 195 91 6 0 56 -42 112 -93 123 -112 237 -207 274
-227 15 -8 47 -26 71 -39 24 -13 51 -29 59 -35 8 -7 38 -22 65 -33 28 -12 86
-37 130 -57 88 -38 319 -97 460 -117 127 -19 586 -16 730 4 137 19 311 52 348
66 51 20 80 12 152 -36 109 -74 380 -204 483 -233 95 -25 159 -45 222 -68 30
-11 89 -25 130 -30 41 -6 136 -20 210 -32 321 -49 646 -40 911 26 92 23 95 22
180 -68 43 -46 79 -86 79 -89 0 -18 150 -125 255 -182 131 -72 279 -126 420
-153 125 -25 473 -26 560 -2 33 9 84 19 114 23 30 3 67 13 82 21 55 28 92 19
156 -37 72 -63 148 -121 189 -142 27 -14 147 -64 319 -133 33 -14 87 -29 120
-34 33 -5 121 -18 195 -29 74 -11 188 -24 252 -29 105 -8 122 -12 158 -37 39
-27 41 -28 128 -19 48 5 175 9 282 9 189 -1 199 -2 315 -34 66 -18 152 -41
190 -51 75 -19 142 -49 245 -108 82 -47 239 -200 269 -264 31 -66 59 -98 84
-98 12 0 48 16 79 35 32 18 90 48 130 65 40 17 84 37 98 44 14 8 54 23 90 35
36 11 99 32 140 46 74 26 229 67 325 86 88 18 311 31 660 38 335 8 341 8 415
35 112 40 188 76 257 121 34 22 84 53 110 70 26 16 84 61 128 100 98 85 86 73
170 171 174 201 268 325 325 429 25 44 55 98 67 120 77 135 173 353 194 440 5
22 18 67 28 100 32 102 72 248 81 295 4 25 20 97 35 160 28 120 31 140 41 306
5 65 3 107 -4 120 -10 18 -11 17 -21 -9 -6 -16 -11 -66 -11 -113 0 -53 -5 -95
-14 -112 -8 -15 -19 -61 -25 -102 -22 -141 -145 -444 -230 -569 -10 -14 -44
-64 -75 -111 -84 -128 -84 -128 -176 -234 -47 -54 -104 -121 -128 -149 -43
-51 -79 -80 -272 -224 -151 -113 -225 -164 -310 -214 -41 -24 -88 -51 -105
-61 -58 -35 -225 -112 -325 -151 -121 -48 -365 -124 -460 -145 -165 -36 -290
-43 -615 -33 -278 9 -310 12 -440 40 -77 17 -180 42 -230 57 -49 14 -133 36
-185 49 -159 39 -317 90 -615 200 -211 77 -323 118 -415 151 -120 44 -276 113
-348 156 -114 67 -272 255 -272 322 0 27 -40 36 -80 19 -66 -29 -155 -42 -279
-43 -119 0 -177 6 -326 36 -38 7 -104 16 -145 20 -41 3 -86 8 -100 10 -143 24
-233 34 -303 34 -145 0 -264 52 -381 167 -42 41 -83 88 -91 103 -20 39 -42 43
-111 24 -130 -36 -346 -84 -425 -94 -46 -5 -109 -15 -139 -21 -84 -17 -499
-23 -600 -9 -256 37 -359 65 -527 145 -255 121 -492 352 -617 603 -15 28 -30
52 -35 52 -5 0 -19 -19 -30 -42 -41 -86 -119 -165 -206 -211 -122 -64 -177
-77 -326 -77 -97 0 -166 6 -231 19 -389 80 -554 103 -870 120 -130 7 -196 16
-250 31 -143 43 -247 129 -333 278 -27 46 -52 85 -56 88 -5 3 -39 -5 -76 -17
-103 -32 -231 -65 -408 -104 -88 -19 -198 -44 -245 -55 -47 -11 -107 -22 -135
-25 -27 -4 -95 -15 -150 -25 -55 -11 -145 -27 -200 -35 -55 -9 -122 -20 -150
-25 -27 -5 -133 -16 -235 -25 -154 -13 -217 -14 -390 -5 -113 6 -239 17 -280
25 -141 27 -245 54 -310 80 -99 41 -212 85 -240 94 -14 5 -54 23 -90 41 -36
17 -78 38 -95 45 -125 56 -282 130 -292 138 -7 5 -27 16 -45 26 -123 65 -481
284 -508 311 -3 3 -23 18 -46 33 -22 15 -64 48 -93 72 -29 25 -56 43 -61 40
-4 -3 -11 -33 -15 -67 -9 -75 -44 -175 -86 -240 -46 -71 -176 -188 -250 -226
-47 -23 -110 -41 -239 -67 -199 -39 -273 -58 -415 -108 -55 -19 -143 -47 -195
-62 -52 -15 -128 -38 -168 -51 -40 -13 -79 -24 -87 -24 -8 0 -41 -8 -72 -19
-200 -65 -186 -63 -326 -59 -147 4 -200 19 -307 90 -73 49 -243 216 -364 358
-54 63 -121 140 -149 170 -29 30 -67 73 -85 94 -18 22 -55 65 -82 95 -27 31
-60 72 -72 91 -13 19 -31 36 -40 38 -16 3 -17 -13 -17 -166z"/>
<path d="M52255 15063 c-33 -8 -67 -23 -76 -34 -9 -10 -25 -51 -34 -91 -10
-40 -38 -133 -62 -207 -24 -73 -41 -142 -38 -152 5 -15 16 -19 50 -19 24 0 57
5 72 12 113 49 239 248 250 396 9 113 -21 131 -162 95z"/>
<path d="M34630 13510 c-107 -5 -384 -16 -615 -25 -240 -10 -425 -22 -432 -27
-21 -17 -15 -44 33 -144 30 -63 50 -123 60 -177 19 -111 19 -515 -1 -654 -15
-106 -62 -299 -96 -393 -25 -69 -110 -230 -155 -293 -19 -26 -34 -53 -34 -60
0 -7 16 -36 35 -64 19 -29 43 -74 53 -100 22 -59 52 -69 78 -26 121 198 238
338 389 466 217 183 355 284 645 473 38 24 283 158 340 186 194 93 501 186
789 239 150 27 456 27 647 -2 237 -35 439 -91 608 -168 44 -21 113 -49 151
-64 345 -126 360 -134 495 -271 60 -61 123 -130 140 -153 16 -24 33 -43 38
-43 38 1 42 35 71 605 6 116 15 239 20 275 6 36 13 126 16 200 5 110 3 139 -9
155 -14 19 -40 21 -543 43 -443 19 -689 23 -1528 26 -550 2 -1088 0 -1195 -4z"/>
<path d="M40613 13229 c-10 -13 -43 -178 -58 -294 -7 -56 -47 -273 -70 -380
-19 -86 -38 -272 -30 -285 14 -23 38 -4 156 121 129 137 112 125 464 353 139
90 232 115 431 115 110 1 276 -17 364 -38 19 -5 58 -12 87 -15 29 -4 87 -18
130 -32 43 -13 130 -38 193 -55 63 -16 143 -41 178 -55 133 -53 434 -224 493
-280 38 -37 71 -31 138 24 134 109 181 141 286 200 61 33 153 80 205 103 97
42 140 72 140 96 0 20 -32 29 -195 53 -82 11 -168 25 -190 30 -22 5 -87 14
-143 20 -57 6 -114 15 -127 20 -13 5 -70 14 -127 20 -56 6 -130 17 -163 25
-34 8 -99 19 -145 24 -47 5 -130 16 -185 25 -106 16 -316 46 -505 71 -63 9
-160 22 -215 30 -55 8 -131 17 -170 20 -38 3 -115 12 -170 20 -55 8 -179 22
-275 31 -96 9 -193 20 -215 24 -22 5 -92 11 -155 15 -92 6 -118 4 -127 -6z"/>
<path d="M31025 13209 c-16 -5 -75 -14 -130 -20 -55 -5 -125 -16 -155 -23 -30
-8 -98 -19 -151 -26 -53 -6 -121 -18 -150 -25 -30 -8 -81 -15 -114 -16 -70 -1
-107 -10 -112 -26 -5 -13 85 -62 152 -83 61 -20 113 -57 185 -130 88 -90 135
-184 151 -305 16 -119 6 -331 -21 -465 -35 -173 -60 -372 -48 -393 9 -17 18
-18 86 -13 297 24 404 19 499 -25 79 -36 91 -14 43 81 -36 71 -47 138 -61 380
-5 102 -14 217 -18 255 -5 39 -14 124 -20 190 -7 66 -14 140 -16 165 -18 177
-17 300 0 375 13 55 16 82 8 94 -12 19 -83 25 -128 10z"/>
<path d="M28190 12594 c-25 -7 -79 -22 -120 -33 -41 -10 -120 -33 -175 -50
-55 -18 -133 -41 -173 -53 -41 -11 -76 -27 -79 -34 -7 -18 14 -52 80 -130 86
-101 124 -183 143 -307 26 -171 5 -312 -71 -472 -25 -53 -45 -99 -45 -103 0
-4 -23 -53 -51 -109 -31 -62 -49 -108 -45 -119 7 -18 19 -17 151 11 189 40
211 46 226 64 8 10 21 58 28 107 6 49 16 118 21 154 5 36 11 115 15 175 5 111
13 191 42 455 18 164 39 233 109 349 24 41 43 82 42 90 -4 21 -42 23 -98 5z"/>
<path d="M56017 11812 c-10 -10 -17 -22 -17 -27 0 -10 -66 -181 -85 -220 -9
-16 -19 -43 -24 -60 -5 -16 -26 -68 -46 -115 -20 -47 -44 -107 -52 -135 -9
-27 -22 -59 -29 -70 -12 -20 -84 -199 -84 -211 0 -3 -6 -20 -14 -37 -29 -64
-151 -373 -165 -417 -5 -14 -18 -46 -29 -71 -12 -25 -49 -120 -83 -210 -34
-90 -73 -193 -86 -229 -14 -36 -36 -92 -48 -125 -76 -202 -98 -252 -113 -268
-10 -9 -49 -23 -87 -31 -96 -19 -300 -54 -355 -61 -54 -7 -224 -95 -228 -119
-2 -9 9 -29 25 -44 131 -123 240 -284 293 -432 12 -36 36 -95 51 -131 36 -84
52 -207 53 -419 2 -362 -47 -608 -163 -815 -18 -33 -44 -79 -57 -102 -106
-192 -327 -425 -604 -638 -132 -101 -417 -241 -567 -279 -225 -57 -284 -67
-488 -86 -49 -5 -126 -13 -170 -19 -114 -14 -481 -35 -494 -27 -5 4 -110 11
-233 16 -143 6 -261 17 -328 29 -58 11 -148 25 -200 30 -186 21 -378 64 -604
137 -138 45 -450 196 -581 281 -55 36 -118 77 -140 92 -395 258 -638 590 -686
936 -30 217 21 369 210 619 100 132 304 342 426 438 33 25 98 77 145 114 134
106 240 170 330 200 45 15 85 34 88 42 2 8 -5 30 -17 50 -39 65 -65 124 -106
247 -28 84 -45 121 -57 123 -9 2 -43 -9 -75 -25 -55 -26 -66 -28 -188 -28
-110 0 -139 4 -191 23 -132 49 -417 78 -604 61 -177 -15 -322 -38 -375 -58
-75 -28 -89 -52 -103 -164 -7 -52 -21 -135 -31 -184 -21 -96 -54 -304 -71
-453 -7 -52 -20 -135 -30 -185 -11 -49 -22 -117 -25 -150 -4 -33 -13 -98 -22
-145 -8 -47 -21 -125 -28 -175 -8 -49 -21 -139 -30 -200 -9 -60 -20 -144 -25
-185 -36 -320 -79 -447 -190 -560 -65 -66 -141 -113 -222 -138 -54 -17 -106
-22 -275 -27 -120 -4 -252 -2 -313 4 -58 5 -204 19 -325 30 -508 47 -646 68
-815 122 -121 39 -218 109 -298 214 -67 89 -91 155 -99 280 -7 118 -12 124
-74 82 -119 -80 -313 -179 -479 -243 -63 -25 -126 -49 -139 -55 -13 -5 -84
-23 -159 -39 -75 -17 -159 -38 -186 -49 -54 -20 -124 -30 -374 -57 -121 -13
-218 -15 -460 -11 -372 6 -589 32 -763 92 -57 20 -126 42 -154 50 -62 18 -361
167 -424 212 -25 18 -55 33 -66 33 -12 0 -46 -26 -80 -61 -128 -130 -322 -238
-510 -283 -33 -8 -103 -26 -155 -40 -52 -15 -142 -33 -200 -42 -58 -8 -136
-25 -175 -37 -66 -21 -87 -22 -385 -22 -300 0 -319 1 -405 24 -156 42 -220 83
-389 255 -146 148 -255 284 -385 479 -36 53 -69 97 -73 97 -16 0 -29 -55 -26
-110 4 -66 -9 -248 -23 -342 -26 -169 -139 -305 -309 -371 -153 -59 -225 -65
-1025 -86 -203 -5 -410 -13 -460 -17 -117 -8 -324 18 -415 54 -134 53 -223
129 -307 266 -27 44 -54 81 -60 83 -6 2 -79 -54 -162 -124 -83 -70 -195 -158
-249 -195 -112 -77 -402 -226 -512 -264 -247 -84 -364 -111 -585 -133 -55 -6
-136 -18 -180 -26 -182 -36 -703 -41 -896 -9 -47 8 -126 27 -175 43 -49 15
-116 32 -149 36 -33 4 -109 26 -170 50 -60 24 -131 51 -156 59 -70 25 -142 72
-269 176 -142 118 -369 335 -433 415 -26 33 -73 92 -103 130 -31 39 -70 94
-86 123 -55 96 -63 66 -47 -168 21 -291 22 -571 4 -677 -24 -144 -91 -281
-173 -355 -57 -52 -167 -114 -252 -143 -85 -29 -342 -71 -530 -86 -69 -5 -174
-16 -235 -24 -137 -17 -556 -11 -653 11 -71 16 -151 53 -202 95 -19 16 -43 29
-52 29 -10 0 -51 -30 -91 -67 -106 -99 -224 -173 -375 -237 -72 -31 -137 -56
-143 -56 -6 0 -43 -9 -82 -21 -40 -11 -108 -31 -152 -44 -155 -45 -271 -73
-390 -95 -66 -12 -172 -33 -235 -48 -113 -26 -121 -26 -465 -26 l-350 0 -125
31 c-304 76 -442 147 -620 324 -92 90 -135 146 -195 254 -16 28 -48 83 -72
122 -24 40 -43 77 -43 82 0 21 -42 122 -57 136 -21 21 -30 12 -38 -38 -27
-170 -101 -362 -208 -537 -64 -104 -209 -331 -270 -420 -117 -173 -464 -521
-701 -702 -225 -173 -317 -236 -441 -303 -77 -41 -171 -94 -210 -116 -38 -22
-101 -55 -140 -73 -38 -19 -151 -73 -250 -121 -275 -134 -476 -219 -544 -230
-24 -4 -62 -15 -85 -25 -58 -26 -367 -107 -456 -119 -234 -33 -286 -42 -324
-52 -115 -31 -476 -51 -796 -44 -446 10 -642 28 -760 70 -25 9 -99 27 -165 41
-66 13 -172 42 -235 65 -63 23 -137 49 -165 59 -46 16 -135 58 -195 91 -127
71 -272 227 -332 359 -76 166 -95 396 -49 580 13 52 29 106 36 120 7 14 30 70
50 125 20 55 43 110 51 122 7 12 18 41 23 65 9 37 200 442 231 488 5 8 48 79
95 158 114 191 225 360 300 457 134 174 156 202 202 252 27 29 84 80 128 113
100 75 174 100 300 100 162 0 250 -33 469 -178 213 -141 399 -222 557 -242
115 -14 422 -14 518 0 90 14 229 56 254 78 9 8 17 21 17 28 0 17 -31 34 -62
34 -13 1 -41 7 -63 15 -22 8 -137 30 -255 49 -118 19 -248 42 -288 50 -40 9
-112 20 -161 26 -92 10 -457 91 -526 117 -22 8 -96 34 -165 58 -213 73 -237
83 -332 131 -185 93 -314 172 -393 243 -165 147 -330 312 -370 370 -138 198
-168 250 -224 391 -91 225 -113 349 -119 675 -4 244 -3 254 27 430 30 174 58
287 101 408 16 44 18 62 10 78 -15 26 -34 20 -130 -40 -41 -26 -104 -62 -139
-80 -36 -18 -92 -51 -124 -73 -33 -21 -77 -48 -96 -59 -20 -10 -44 -25 -53
-31 -14 -10 -21 -9 -36 6 -20 17 -63 118 -97 225 -22 67 -63 159 -75 166 -20
13 -88 -30 -164 -103 -45 -43 -104 -95 -133 -117 -44 -34 -273 -240 -424 -381
-24 -23 -118 -119 -209 -214 -91 -94 -225 -233 -299 -308 -74 -76 -144 -153
-156 -172 -12 -19 -50 -60 -83 -90 -34 -30 -62 -59 -62 -63 0 -10 -91 -119
-178 -215 -37 -40 -74 -87 -84 -105 -9 -18 -38 -54 -63 -82 -26 -27 -58 -66
-71 -85 -13 -19 -37 -53 -53 -75 -17 -22 -34 -47 -37 -55 -4 -8 -26 -34 -49
-57 -22 -22 -56 -70 -74 -106 -18 -36 -42 -75 -52 -86 -11 -11 -19 -25 -19
-31 0 -5 -9 -19 -19 -29 -11 -11 -28 -35 -37 -53 -9 -18 -20 -35 -24 -38 -9
-6 -46 -66 -60 -97 -5 -13 -15 -33 -20 -45 -14 -32 -48 -88 -71 -117 -10 -13
-19 -31 -19 -40 0 -9 -7 -29 -15 -45 -8 -16 -23 -54 -31 -84 -9 -31 -33 -81
-54 -112 -21 -30 -41 -71 -45 -90 -3 -19 -15 -54 -26 -77 -10 -24 -19 -54 -19
-67 0 -14 -5 -38 -11 -53 -22 -54 -27 -68 -38 -109 -6 -23 -11 -51 -11 -62 0
-11 -5 -22 -10 -24 -12 -4 -25 -80 -40 -218 -4 -47 -16 -107 -25 -135 -25 -78
-26 -632 -1 -765 10 -52 22 -129 27 -170 11 -104 24 -167 42 -220 9 -25 20
-67 26 -95 10 -52 44 -158 67 -210 7 -17 17 -41 23 -55 6 -14 15 -32 20 -40 6
-8 27 -53 47 -100 20 -47 47 -108 60 -136 13 -28 24 -58 24 -66 0 -9 7 -18 14
-21 8 -3 23 -21 32 -38 9 -18 23 -39 30 -47 8 -7 14 -22 14 -31 0 -10 9 -30
20 -44 11 -14 20 -29 20 -34 1 -4 14 -24 30 -43 17 -19 30 -39 30 -44 0 -5 22
-35 48 -65 26 -31 65 -82 85 -114 21 -31 41 -57 46 -57 4 0 20 -20 35 -45 16
-24 63 -80 105 -123 42 -43 116 -120 165 -171 48 -51 107 -104 130 -118 22
-15 57 -41 76 -58 125 -115 161 -145 173 -145 8 0 22 -9 32 -20 10 -11 24 -20
30 -20 7 0 34 -19 60 -42 47 -42 57 -48 157 -102 29 -16 55 -32 58 -36 3 -4
16 -11 29 -15 14 -4 52 -26 85 -50 79 -54 142 -87 246 -126 47 -18 92 -38 100
-45 8 -7 29 -16 45 -20 17 -3 37 -12 45 -19 8 -7 35 -19 60 -25 25 -7 69 -23
98 -36 29 -13 59 -24 66 -24 7 0 19 -7 26 -14 6 -8 37 -20 68 -27 31 -6 68
-17 82 -24 14 -7 48 -16 75 -20 28 -4 70 -15 95 -25 25 -10 72 -21 104 -24 33
-4 64 -11 70 -15 6 -5 63 -17 126 -26 63 -9 128 -24 144 -32 15 -8 74 -19 130
-24 55 -5 119 -15 141 -23 23 -9 121 -19 235 -26 107 -6 253 -18 324 -26 150
-17 733 -19 981 -4 83 6 240 14 350 19 248 12 457 28 597 47 59 8 127 14 152
14 26 0 93 11 149 25 57 14 126 24 153 24 63 -2 154 9 224 26 30 8 116 19 190
25 74 7 173 18 220 26 47 8 123 21 170 28 47 7 92 16 100 20 8 3 71 13 140 21
69 7 150 20 180 28 149 39 341 77 383 77 18 0 64 9 102 19 73 20 182 45 250
57 22 4 42 8 45 9 3 0 32 5 64 9 33 4 71 12 85 18 14 5 68 14 120 19 52 6 104
15 115 21 12 7 53 17 91 24 39 6 93 21 120 32 28 11 93 27 145 36 100 16 168
32 290 65 141 39 235 60 300 66 36 4 74 13 85 20 11 7 45 16 75 20 30 4 65 14
78 22 27 16 38 19 142 34 41 6 89 17 107 25 17 8 44 14 60 14 15 0 41 9 58 20
16 11 50 22 75 26 50 7 99 20 146 39 17 7 66 16 110 20 44 4 96 16 116 26 21
11 47 19 58 19 12 0 33 6 48 14 15 8 62 19 104 25 42 6 96 18 120 27 24 9 68
20 98 24 30 5 75 18 99 30 24 12 71 27 105 35 35 7 72 18 84 24 11 6 29 11 40
11 11 0 60 14 110 30 50 17 104 30 120 30 15 0 32 4 37 9 12 10 83 28 145 36
25 4 63 13 85 20 22 7 99 30 170 50 72 19 146 42 165 50 19 7 56 16 83 19 26
3 57 12 70 19 26 16 136 48 267 77 52 11 106 25 120 30 14 6 56 14 94 19 37 6
76 17 86 26 9 8 41 18 71 21 30 3 74 14 98 25 24 10 51 19 60 19 9 0 43 8 76
19 33 11 87 24 120 30 33 6 78 20 101 31 22 11 67 25 100 31 32 6 82 17 109
25 28 7 73 16 100 20 28 3 104 22 170 41 66 19 143 39 171 44 28 5 79 18 114
29 34 11 82 20 106 20 26 0 60 9 86 23 24 13 77 29 118 36 41 7 102 22 134 32
33 10 85 19 116 19 31 0 61 5 67 11 14 14 73 28 148 35 33 3 81 12 106 19 25
8 94 19 154 25 59 5 114 15 121 21 8 6 53 15 102 20 48 5 101 16 118 24 26 12
91 25 349 66 28 4 73 8 100 8 28 1 64 8 80 17 17 9 66 19 110 24 82 8 166 20
315 46 47 8 160 18 251 23 92 5 171 11 176 14 5 3 79 10 164 16 85 6 171 16
189 22 47 14 179 26 460 39 129 6 261 15 293 21 31 5 193 12 360 15 166 3 379
10 472 15 177 10 467 13 640 5 55 -2 244 -7 420 -10 176 -4 367 -11 425 -17
58 -6 141 -13 185 -14 350 -15 552 -28 620 -40 97 -17 247 -33 373 -40 51 -3
101 -9 110 -14 9 -4 110 -11 224 -15 113 -4 221 -11 240 -17 18 -6 78 -14 133
-20 55 -5 111 -11 125 -15 14 -3 73 -9 131 -13 72 -6 114 -14 130 -25 17 -11
46 -16 99 -16 41 -1 95 -5 120 -11 25 -5 83 -14 130 -19 129 -13 281 -38 336
-55 27 -8 65 -15 84 -15 19 0 82 -9 140 -20 58 -11 148 -24 200 -29 52 -5 115
-14 140 -19 25 -6 85 -16 134 -22 50 -7 104 -18 120 -25 17 -7 72 -15 123 -19
50 -3 111 -12 135 -20 41 -13 115 -28 203 -42 22 -3 47 -12 57 -21 10 -9 53
-18 113 -24 54 -5 103 -13 109 -18 6 -5 54 -14 106 -21 52 -7 111 -18 130 -26
49 -19 118 -33 163 -34 21 0 54 -7 75 -16 20 -8 73 -19 117 -25 44 -5 105 -16
135 -24 30 -8 83 -20 118 -25 35 -6 73 -15 84 -21 20 -11 232 -62 323 -78 22
-4 49 -12 60 -18 11 -6 49 -17 85 -23 36 -7 77 -19 92 -26 15 -8 67 -18 117
-23 49 -5 102 -16 118 -24 15 -8 72 -19 125 -26 54 -6 132 -22 174 -36 42 -14
89 -25 103 -25 15 0 44 -9 66 -20 22 -11 52 -20 68 -20 15 0 41 -7 57 -15 16
-8 61 -19 100 -25 39 -6 98 -19 132 -31 34 -11 84 -23 112 -26 28 -3 62 -11
76 -18 14 -7 58 -18 99 -24 66 -10 195 -37 291 -61 19 -5 69 -16 110 -26 41
-9 91 -22 110 -29 19 -7 58 -16 85 -19 62 -9 147 -33 183 -52 15 -8 49 -14 75
-14 26 0 62 -7 79 -16 18 -9 74 -20 127 -24 62 -5 112 -15 141 -29 28 -13 66
-21 100 -21 32 0 73 -8 97 -20 26 -11 77 -21 135 -25 51 -4 95 -10 98 -14 3
-5 33 -11 68 -15 34 -4 81 -14 103 -22 23 -7 62 -14 88 -14 25 0 58 -7 73 -14
15 -8 53 -17 85 -21 32 -3 87 -12 123 -20 36 -8 155 -24 265 -35 110 -11 229
-25 265 -31 36 -6 106 -14 155 -19 50 -4 108 -12 130 -18 132 -34 1877 -30
1940 4 11 6 61 14 110 18 50 4 106 11 125 16 19 5 37 10 40 10 3 1 23 5 45 10
22 5 89 14 149 20 61 6 115 15 122 21 7 5 43 15 81 21 37 6 77 17 88 24 11 8
30 14 44 14 25 0 110 23 171 46 19 7 62 16 95 19 33 4 67 13 76 21 9 9 34 17
56 19 21 2 59 12 83 23 25 10 74 24 110 31 36 7 77 19 92 27 15 8 36 14 46 14
11 0 31 9 45 21 15 11 48 27 74 36 27 9 57 22 68 30 11 7 29 13 41 13 12 0 63
22 115 49 52 27 112 53 134 57 22 4 49 13 60 19 11 7 31 16 44 20 13 4 52 26
86 50 34 23 74 45 88 49 15 3 43 17 63 31 20 14 42 25 49 25 7 0 18 7 25 15 7
8 31 24 54 35 22 11 59 31 81 44 22 14 58 34 80 46 90 48 98 53 165 115 14 12
57 39 95 60 39 20 72 41 75 45 3 4 19 14 35 23 17 8 45 31 63 51 18 20 37 36
42 36 5 0 35 23 65 50 30 28 59 50 63 50 4 0 23 16 42 35 19 20 55 51 79 70
57 46 172 155 241 231 85 93 92 100 143 145 26 23 47 47 47 55 0 14 42 65 82
100 7 7 27 29 43 50 17 21 39 47 51 58 11 12 30 41 43 65 20 39 67 102 128
169 13 14 44 64 70 111 25 47 50 88 55 89 4 2 8 7 8 12 0 4 27 48 60 96 33 49
60 95 60 103 0 16 60 111 70 111 4 0 14 17 23 37 9 21 21 45 26 53 5 8 22 49
37 90 16 41 38 86 50 100 12 14 25 36 29 50 4 14 13 32 20 40 7 8 18 32 25 54
12 38 63 141 80 161 5 5 12 24 16 40 4 17 10 35 14 40 5 6 17 42 29 81 12 40
27 77 35 83 8 7 20 35 26 63 7 28 19 63 26 77 8 14 14 36 14 49 0 21 32 97 79
192 10 19 21 62 25 94 4 33 11 65 16 71 5 6 18 47 29 91 10 43 26 93 35 109 9
17 16 54 16 88 0 32 7 74 15 94 8 19 22 90 29 157 8 66 22 140 30 164 8 23 20
91 27 150 6 59 18 120 26 135 11 20 18 82 25 200 16 301 24 539 21 637 -7 225
-12 330 -16 337 -3 5 -8 67 -12 138 -4 72 -11 135 -17 142 -5 6 -13 39 -18 72
-5 34 -14 73 -22 88 -10 22 -11 49 -4 120 8 88 7 98 -34 265 -23 95 -50 196
-59 223 -10 28 -45 131 -79 230 -59 176 -103 300 -122 340 -5 11 -25 58 -45
105 -56 131 -165 353 -182 373 -20 22 -36 22 -56 -1z m-267 -3947 c0 -8 -4
-15 -10 -15 -5 0 -7 7 -4 15 4 8 8 15 10 15 2 0 4 -7 4 -15z m-6500 -1186 c0
-5 -7 -9 -15 -9 -9 0 -15 9 -15 21 0 18 2 19 15 9 8 -7 15 -16 15 -21z m5706
-25 c-4 -9 -9 -15 -11 -12 -3 3 -3 13 1 22 4 9 9 15 11 12 3 -3 3 -13 -1 -22z
m-11696 -13 c0 -5 -9 -7 -20 -4 -11 3 -20 7 -20 9 0 2 9 4 20 4 11 0 20 -4 20
-9z m-5760 -101 c0 -5 -12 -10 -26 -10 -14 0 -23 4 -19 10 3 6 15 10 26 10 10
0 19 -4 19 -10z m3770 0 c0 -5 -7 -10 -15 -10 -8 0 -15 5 -15 10 0 6 7 10 15
10 8 0 15 -4 15 -10z m770 0 c0 -5 -7 -10 -15 -10 -8 0 -15 5 -15 10 0 6 7 10
15 10 8 0 15 -4 15 -10z m100 0 c0 -5 -13 -10 -30 -10 -16 0 -30 5 -30 10 0 6
14 10 30 10 17 0 30 -4 30 -10z m-4310 -140 c0 -5 -8 -10 -17 -10 -15 0 -16 2
-3 10 19 12 20 12 20 0z m1885 -100 c-3 -5 -13 -10 -21 -10 -8 0 -14 5 -14 10
0 6 9 10 21 10 11 0 17 -4 14 -10z m-1555 -40 c0 -5 -7 -7 -15 -4 -8 4 -15 8
-15 10 0 2 7 4 15 4 8 0 15 -4 15 -10z m8150 1 c0 -5 -9 -7 -20 -4 -11 3 -20
7 -20 9 0 2 9 4 20 4 11 0 20 -4 20 -9z m-11800 -102 c0 -5 -7 -9 -15 -9 -15
0 -20 12 -9 23 8 8 24 -1 24 -14z m285 -99 c4 -6 -5 -10 -19 -10 -14 0 -26 5
-26 10 0 6 9 10 19 10 11 0 23 -4 26 -10z m1815 0 c0 -5 -7 -10 -15 -10 -8 0
-15 5 -15 10 0 6 7 10 15 10 8 0 15 -4 15 -10z m-2830 -130 c0 -13 -28 -25
-38 -16 -3 4 0 11 8 16 20 13 30 12 30 0z m1610 -12 c0 -6 -10 -8 -22 -4 -13
3 -38 6 -55 6 -18 0 -33 3 -33 8 0 4 25 5 55 4 30 -2 55 -8 55 -14z m560 2 c0
-5 -9 -10 -20 -10 -11 0 -20 5 -20 10 0 6 9 10 20 10 11 0 20 -4 20 -10z m103
3 c-7 -2 -19 -2 -25 0 -7 3 -2 5 12 5 14 0 19 -2 13 -5z m17505 -200 c-4 -22
-38 -30 -38 -10 0 14 13 24 33 26 5 1 7 -7 5 -16z m-22088 -42 c0 -5 -9 -11
-20 -14 -13 -3 -20 0 -20 9 0 8 9 14 20 14 11 0 20 -4 20 -9z m1750 -1 c0 -5
-12 -10 -27 -10 -22 0 -25 2 -13 10 20 13 40 13 40 0z m20210 0 c0 -5 -5 -10
-11 -10 -5 0 -7 5 -4 10 3 6 8 10 11 10 2 0 4 -4 4 -10z m-490 -140 c0 -5 -4
-10 -10 -10 -5 0 -10 5 -10 10 0 6 5 10 10 10 6 0 10 -4 10 -10z m-22070 -100
c0 -5 -9 -10 -20 -10 -11 0 -20 5 -20 10 0 6 9 10 20 10 11 0 20 -4 20 -10z
m-3250 -800 c0 -5 -4 -10 -10 -10 -5 0 -10 5 -10 10 0 6 5 10 10 10 6 0 10 -4
10 -10z m-873 -662 c-3 -8 -6 -5 -6 6 -1 11 2 17 5 13 3 -3 4 -12 1 -19z
m-947 -468 c0 -5 -12 -10 -26 -10 -14 0 -23 4 -19 10 3 6 15 10 26 10 10 0 19
-4 19 -10z m-2953 -276 c-3 -3 -12 -4 -19 -1 -8 3 -5 6 6 6 11 1 17 -2 13 -5z
m1973 -4 c0 -7 -20 -10 -50 -9 -27 2 -50 6 -50 11 0 4 23 8 50 8 28 0 50 -5
50 -10z"/>
<path d="M41879 10512 c-58 -48 -125 -100 -148 -116 -23 -16 -49 -43 -57 -58
-16 -32 -16 -32 106 -193 25 -33 61 -83 80 -112 19 -28 45 -56 58 -62 32 -15
37 4 51 184 6 83 15 164 19 180 15 49 35 232 29 249 -4 9 -12 16 -19 16 -7 0
-61 -40 -119 -88z"/>
<path d="M35783 10318 c-14 -18 -57 -151 -89 -278 -23 -87 -28 -133 -32 -272
-6 -242 15 -340 88 -402 42 -35 96 -34 225 3 116 33 150 52 262 141 45 36 121
90 170 119 48 30 113 71 143 91 30 21 89 53 132 71 118 50 105 59 -80 59 -186
0 -327 28 -447 88 -134 66 -260 200 -308 326 -23 63 -44 80 -64 54z"/>
<path d="M25415 10150 c-143 -13 -331 -86 -309 -121 3 -5 35 -9 72 -9 205 0
621 -64 913 -140 91 -24 129 -26 129 -5 0 8 -15 25 -34 37 -18 13 -63 44 -99
70 -110 81 -208 128 -310 148 -112 22 -254 30 -362 20z"/>
<path d="M26917 9915 c-80 -76 -166 -127 -256 -150 -25 -6 -46 -16 -49 -23 -2
-8 41 -33 110 -66 62 -29 145 -73 183 -98 85 -54 104 -61 120 -48 9 7 10 22 4
53 -4 23 -8 117 -9 209 0 158 -4 199 -19 198 -3 -1 -41 -34 -84 -75z"/>
<path d="M37570 9974 c-85 -38 -324 -82 -452 -84 -5 0 -8 -4 -8 -9 0 -11 82
-46 145 -62 96 -23 201 -86 297 -177 57 -54 58 -54 66 -31 5 13 12 80 15 149
4 69 11 139 16 157 20 69 -7 89 -79 57z"/>
<path d="M46488 9852 c-31 -26 -84 -66 -118 -90 -73 -51 -83 -70 -49 -91 13
-8 57 -48 97 -88 40 -40 77 -73 82 -73 19 0 52 148 77 343 5 42 4 47 -13 47
-10 -1 -45 -22 -76 -48z"/>
<path d="M30980 9560 c-457 -57 -503 -65 -520 -85 -12 -15 -33 -121 -54 -275
-34 -242 -65 -770 -47 -799 11 -17 43 -13 216 28 72 17 154 31 182 31 61 0
192 -33 245 -62 20 -12 43 -18 51 -15 15 6 15 0 37 612 5 149 14 333 18 410 5
77 6 146 4 153 -4 13 -41 14 -132 2z"/>
<path d="M27818 8975 c-3 -3 -40 -10 -83 -14 -42 -5 -82 -14 -87 -19 -7 -7 5
-35 38 -87 78 -121 93 -147 111 -195 9 -25 21 -51 27 -58 16 -22 36 14 36 64
0 23 9 96 20 162 11 66 17 127 14 136 -6 15 -63 23 -76 11z"/>
</g>
</svg>
