<?xml version="1.0" standalone="no"?>
<!DOCTYPE svg PUBLIC "-//W3C//DTD SVG 20010904//EN"
 "http://www.w3.org/TR/2001/REC-SVG-20010904/DTD/svg10.dtd">
<svg version="1.0" xmlns="http://www.w3.org/2000/svg"
 width="2480.000000pt" height="2480.000000pt" viewBox="0 0 2480.000000 2480.000000"
 preserveAspectRatio="xMidYMid meet">

<g transform="translate(0.000000,2480.000000) scale(0.100000,-0.100000)"
fill="#000000" stroke="none">
<path d="M1000 16390 l0 -150 11125 0 11125 0 0 150 0 150 -11125 0 -11125 0
0 -150z"/>
<path d="M2165 15944 c-322 -48 -581 -165 -776 -351 -150 -144 -242 -289 -307
-486 -53 -160 -72 -276 -79 -477 -16 -469 129 -780 468 -1006 138 -92 317
-174 729 -333 201 -78 408 -160 460 -182 286 -121 384 -268 359 -538 -26 -279
-171 -442 -454 -513 -123 -30 -434 -33 -534 -5 -206 58 -382 193 -516 393 -71
107 -172 315 -217 446 l-33 98 -91 0 -92 0 -6 -77 c-3 -43 -15 -249 -26 -458
-11 -209 -27 -497 -35 -641 -8 -144 -15 -270 -15 -281 0 -16 8 -12 46 23 93
87 190 113 344 89 52 -7 165 -30 250 -50 289 -67 438 -87 710 -92 355 -7 595
23 855 108 637 207 974 697 975 1420 0 221 -32 358 -124 536 -117 225 -318
420 -566 551 -123 64 -171 83 -840 319 -102 35 -225 85 -274 111 -170 88 -261
203 -273 350 -20 244 133 436 407 509 89 23 263 23 350 -1 36 -9 106 -37 155
-61 225 -108 408 -288 580 -570 l18 -30 53 290 c120 666 134 748 131 751 -2 2
-21 -1 -43 -7 -69 -20 -215 -5 -354 36 -155 46 -357 88 -520 110 -120 16 -641
30 -715 19z"/>
<path d="M16757 15813 c-82 -90 -175 -105 -373 -58 -191 45 -341 66 -529 72
-353 11 -600 -33 -861 -157 -286 -135 -496 -344 -635 -633 l-49 -102 0 -684 0
-683 41 -102 c89 -225 216 -423 369 -577 247 -248 532 -369 965 -409 63 -6
437 -10 883 -10 l772 0 0 63 0 64 -49 23 c-64 29 -106 73 -126 130 -30 85 -36
237 -33 791 4 608 5 617 75 699 41 47 78 68 136 78 l42 8 0 64 0 65 -665 0
-665 0 -3 -62 c-3 -61 -2 -62 25 -68 121 -25 169 -66 204 -172 22 -65 23 -86
27 -485 5 -571 -7 -675 -94 -768 -67 -72 -126 -94 -249 -95 -174 0 -309 59
-445 195 -183 182 -312 475 -375 850 -22 133 -31 437 -16 585 55 545 283 907
627 995 96 25 246 26 347 4 86 -19 211 -75 298 -135 167 -113 338 -344 424
-571 17 -45 18 -46 54 -41 20 3 39 9 44 12 8 8 -110 1115 -121 1141 -6 12 -15
7 -45 -27z"/>
<path d="M19616 15812 c-3 -5 -27 -20 -53 -33 l-48 -24 -1062 -3 -1063 -2 0
-64 0 -63 40 -6 c115 -15 163 -115 180 -372 12 -181 12 -2110 0 -2280 -18
-248 -67 -347 -180 -362 l-40 -6 0 -63 0 -63 1103 -3 c1172 -3 1132 -2 1184
-50 13 -12 26 -19 29 -15 3 3 44 144 91 314 46 169 124 456 174 637 49 181 88
330 87 331 -2 1 -21 12 -43 23 l-40 20 -76 -157 c-85 -174 -164 -299 -262
-412 -213 -246 -503 -374 -812 -356 -163 9 -246 49 -297 144 -51 93 -53 129
-53 788 l0 610 185 -1 c201 -1 259 -11 352 -61 46 -25 141 -117 184 -177 l20
-28 78 10 c43 6 80 12 82 14 2 3 -12 110 -31 239 -19 129 -46 321 -61 427
l-27 192 -57 0 -58 0 -11 -46 c-17 -69 -45 -116 -90 -157 -66 -59 -116 -70
-358 -75 l-213 -4 0 189 c0 243 11 341 47 413 52 102 137 135 343 134 115 -1
148 -5 225 -28 303 -89 518 -307 635 -643 18 -51 36 -93 40 -93 24 0 80 33 80
46 0 9 -13 87 -29 173 -37 195 -100 531 -142 761 -31 170 -40 202 -53 182z"/>
<path d="M3885 15778 c-8 -26 -165 -915 -165 -936 0 -21 4 -23 50 -20 l51 3
34 79 c49 114 91 179 169 263 69 74 142 131 223 171 59 30 196 68 276 77 l68
7 -4 -1274 c-2 -881 -7 -1287 -14 -1318 -42 -168 -113 -249 -235 -265 -93 -13
-88 -8 -88 -80 l0 -65 778 2 777 3 3 62 c3 58 1 63 -20 67 -13 2 -48 8 -80 14
-102 19 -162 72 -198 177 -38 111 -40 173 -40 1441 l0 1234 48 -7 c205 -26
384 -117 506 -257 64 -72 142 -196 176 -280 l22 -56 59 0 c33 0 59 2 59 5 0 3
-30 179 -66 393 -36 213 -73 429 -81 480 l-16 92 -1144 0 c-906 0 -1144 -3
-1148 -12z"/>
<path d="M19858 15690 l-3 -80 35 -6 c67 -10 77 -14 117 -43 50 -36 93 -120
119 -231 17 -70 18 -178 21 -1630 4 -1680 4 -1674 -49 -1830 -35 -106 -124
-180 -215 -180 -22 0 -23 -4 -23 -80 l0 -80 845 0 845 0 0 79 0 78 -49 7 c-47
6 -111 41 -139 75 -26 31 -60 117 -78 196 -18 74 -19 131 -19 789 l0 710 80
32 c44 18 85 33 91 34 16 0 171 -239 289 -445 335 -584 516 -1057 476 -1243
-6 -29 -18 -64 -27 -78 -22 -32 -77 -60 -137 -69 l-47 -7 0 -79 0 -79 905 0
905 0 0 79 0 78 -41 7 c-148 24 -262 180 -349 481 -103 352 -175 557 -280 800
-142 325 -338 663 -521 894 -41 52 -82 104 -92 117 l-18 23 68 44 c182 117
368 286 476 432 74 99 149 252 183 370 35 123 44 301 20 409 -49 220 -208 389
-419 446 -199 55 -148 53 -1609 57 l-1356 4 -4 -81z m1935 -365 c32 -8 76 -24
98 -36 204 -104 282 -409 180 -706 -92 -267 -351 -489 -728 -622 l-83 -29 -2
481 c-4 599 -2 679 17 743 24 84 103 140 238 169 84 18 210 18 280 0z"/>
<path d="M6280 15686 l0 -66 33 0 c65 0 131 -63 161 -155 33 -103 36 -224 36
-1353 0 -1132 -3 -1261 -37 -1361 -31 -96 -90 -151 -162 -151 l-31 0 0 -65 0
-65 655 0 655 0 0 65 0 65 -30 0 c-56 0 -110 41 -143 106 -9 17 -24 68 -34
115 -16 75 -18 143 -18 613 l0 529 70 29 70 29 20 -25 c32 -40 167 -260 243
-396 251 -451 367 -785 318 -914 -20 -52 -49 -74 -111 -83 l-45 -6 0 -63 0
-64 905 0 905 0 0 64 0 63 -38 7 c-55 8 -103 44 -130 96 -21 40 -23 55 -19
140 5 115 27 211 119 525 39 132 77 265 85 295 8 30 20 59 26 63 18 12 172 -3
253 -23 256 -66 517 -283 643 -536 56 -112 74 -190 69 -299 -6 -143 -56 -217
-173 -257 -27 -9 -50 -21 -49 -27 1 -6 2 -33 3 -61 l1 -50 1000 0 1000 0 0 64
0 63 -42 6 c-76 10 -122 66 -155 187 -15 59 -17 163 -20 1210 -3 989 -2 1143
10 1130 13 -14 1144 -1567 1278 -1756 125 -175 177 -303 186 -454 8 -129 -11
-195 -72 -256 -30 -29 -59 -48 -90 -56 l-45 -12 0 -63 0 -63 420 0 420 0 0 64
0 63 -42 7 c-84 14 -134 76 -166 205 -14 59 -16 197 -20 1236 -3 1210 -1 1302
37 1426 28 90 92 149 160 149 l31 0 0 65 0 65 -420 0 -420 0 0 -65 0 -65 33 0
c81 -1 159 -84 193 -206 16 -61 19 -117 22 -489 l3 -420 -197 290 c-108 160
-233 340 -276 400 -137 193 -173 293 -129 363 12 18 37 40 56 49 35 16 35 18
35 80 l0 63 -800 0 -801 0 3 -62 3 -63 42 -7 c81 -13 127 -67 160 -188 17 -61
18 -145 18 -1310 0 -1003 -3 -1258 -13 -1310 -13 -62 -52 -153 -71 -164 -14
-9 -78 68 -112 136 -52 102 -51 100 -304 993 -53 187 -130 457 -170 600 -220
776 -296 1057 -301 1120 -6 63 10 94 59 119 38 18 38 18 35 75 l-3 56 -610 0
-610 0 -3 -56 c-3 -54 -2 -56 35 -80 51 -32 67 -81 53 -157 -5 -31 -39 -146
-74 -256 -68 -211 -221 -695 -476 -1501 -83 -264 -169 -530 -190 -591 -44
-128 -101 -264 -110 -264 -11 0 -28 46 -55 143 -145 522 -373 996 -637 1324
-61 77 -66 88 -44 96 33 13 188 131 259 197 205 192 307 404 307 642 0 157
-41 259 -144 356 -67 64 -135 97 -259 125 -90 20 -117 21 -1159 24 l-1068 4 0
-65z m1570 -308 c74 -38 117 -87 151 -175 19 -48 23 -78 23 -168 0 -97 -3
-120 -30 -195 -17 -47 -47 -112 -68 -143 -52 -78 -169 -184 -263 -238 -96 -54
-285 -131 -296 -120 -4 4 -7 210 -5 457 4 465 6 490 47 538 45 52 176 88 296
81 65 -4 92 -11 145 -37z m2419 -673 c50 -187 117 -439 150 -560 32 -121 58
-221 56 -223 -1 -2 -38 22 -81 53 -136 98 -285 159 -417 172 -63 6 -68 8 -63
27 57 221 253 892 257 883 4 -7 48 -165 98 -352z"/>
<path d="M13078 11801 c-87 -91 -174 -100 -411 -47 -223 51 -340 66 -552 73
-385 12 -650 -39 -940 -182 -251 -124 -446 -305 -591 -548 -136 -229 -163
-307 -206 -598 -18 -126 -22 -197 -23 -394 0 -246 6 -308 46 -475 52 -214 188
-527 304 -700 204 -304 462 -502 780 -599 227 -69 281 -76 600 -76 260 0 304
3 419 23 241 44 369 92 533 200 139 91 196 116 275 120 54 3 76 0 108 -17 48
-25 46 -29 60 101 11 104 14 1008 3 1072 l-6 38 -51 -7 c-62 -8 -71 -15 -72
-63 -1 -20 -9 -91 -18 -156 -43 -297 -195 -593 -409 -793 -81 -76 -140 -117
-221 -153 -153 -70 -285 -77 -521 -30 -205 40 -285 80 -411 205 -103 102 -154
174 -224 313 -237 474 -282 1185 -108 1682 118 335 315 544 574 610 105 27
279 27 390 0 308 -73 584 -338 734 -703 l38 -92 43 3 c24 2 45 5 48 8 4 4
-110 1089 -126 1197 -3 20 -8 37 -12 36 -3 0 -27 -22 -53 -48z"/>
<path d="M18175 11819 c-513 -75 -854 -403 -940 -904 -25 -148 -24 -356 3
-467 43 -174 119 -315 232 -428 141 -142 242 -192 935 -460 252 -97 309 -126
383 -194 85 -80 114 -147 113 -270 0 -159 -39 -265 -130 -357 -111 -111 -254
-154 -506 -153 -189 0 -266 17 -410 88 -251 124 -455 372 -567 687 l-23 64
-59 3 c-32 2 -63 -1 -67 -5 -8 -8 69 -1252 77 -1262 2 -2 23 14 48 37 109 100
173 104 501 27 215 -50 342 -66 550 -72 373 -10 647 37 901 156 319 150 534
429 604 786 31 157 38 402 16 515 -61 297 -270 557 -572 712 -100 51 -115 57
-529 203 -365 129 -430 160 -511 240 -79 78 -98 131 -92 254 3 69 10 99 31
143 85 174 333 271 572 224 211 -41 443 -218 589 -449 l49 -77 79 0 c56 0 78
4 78 13 0 25 -92 952 -95 956 -2 1 -21 -11 -42 -28 -105 -84 -206 -97 -398
-53 -314 73 -624 99 -820 71z"/>
<path d="M15960 11738 l0 -58 34 0 c42 0 66 -22 58 -52 -3 -12 -113 -133 -245
-268 -277 -283 -527 -560 -655 -725 l-23 -30 6 195 c4 107 10 326 14 486 9
344 13 358 93 384 l48 15 0 48 0 48 -741 -5 c-407 -2 -742 -6 -745 -8 -2 -3
-5 -27 -6 -54 l-3 -49 40 -5 c32 -4 43 -11 54 -34 18 -38 30 -442 31 -1021 0
-237 6 -640 14 -895 30 -943 35 -1249 21 -1306 -5 -21 -33 -36 -87 -48 -26 -6
-28 -10 -28 -56 l0 -50 745 0 745 0 0 55 c0 33 -4 55 -11 55 -25 0 -81 34
-100 61 -15 21 -23 55 -29 121 -14 142 -31 632 -32 928 -1 361 14 459 87 565
32 47 120 125 141 125 15 0 123 -202 180 -334 125 -292 259 -790 327 -1218 23
-141 23 -150 7 -186 -9 -21 -29 -43 -43 -49 -25 -11 -27 -18 -27 -68 l0 -55
570 0 570 0 0 54 c0 51 -2 55 -34 74 -51 30 -67 62 -77 154 -16 143 -115 624
-189 918 -95 379 -325 853 -571 1179 l-49 63 21 27 c11 14 91 100 178 191 86
91 251 266 366 390 254 272 264 282 343 348 49 41 71 52 98 52 l34 0 0 48 0
47 -565 0 -565 0 0 -57z"/>
<path d="M4352 11678 l3 -63 44 -7 c62 -11 108 -50 142 -122 61 -130 60 -114
56 -1537 -2 -950 -7 -1307 -15 -1344 -21 -89 -53 -153 -93 -190 -37 -33 -55
-41 -109 -47 -24 -3 -25 -6 -25 -68 l0 -65 710 0 710 0 0 64 0 64 -54 14 c-73
18 -114 52 -145 117 -56 119 -58 145 -63 1075 -3 469 -1 856 4 860 4 5 205 6
446 3 l437 -4 0 -792 c0 -946 -6 -1043 -76 -1163 -30 -53 -68 -79 -135 -97
l-54 -13 0 -64 0 -64 713 -3 712 -2 0 69 0 68 -41 6 c-84 11 -137 71 -177 200
-15 46 -17 194 -20 1362 -2 940 0 1332 8 1389 26 177 83 261 193 281 l37 7 0
64 0 64 -712 -2 -713 -3 0 -59 c0 -64 -1 -63 78 -80 42 -10 102 -70 127 -127
40 -95 51 -173 57 -431 l6 -248 -448 0 -448 0 6 253 c6 266 17 347 57 428 41
82 90 121 168 134 l42 7 0 64 0 64 -715 0 -716 0 3 -62z"/>
<path d="M8580 11676 c0 -60 2 -66 27 -78 76 -37 87 -125 35 -288 -17 -52 -71
-225 -122 -385 -50 -159 -126 -400 -170 -535 -43 -135 -99 -312 -125 -394 -88
-286 -317 -1002 -355 -1112 -21 -61 -53 -142 -70 -180 -25 -55 -150 -446 -150
-468 0 -4 183 -5 408 -4 l407 3 3 66 3 67 -38 7 c-59 10 -116 48 -143 97 -22
38 -25 54 -24 138 1 120 33 259 154 665 l88 300 98 -2 c182 -5 358 -71 524
-196 267 -202 430 -485 418 -722 -8 -145 -78 -248 -189 -276 l-49 -13 0 -68 0
-68 713 2 712 3 -4 90 c-3 87 -5 91 -41 132 -86 98 -116 179 -280 758 -56 198
-151 531 -210 740 -169 591 -347 1233 -395 1423 -35 139 -21 191 58 221 26 10
27 14 27 76 l0 65 -655 0 -655 0 0 -64z m414 -907 c35 -129 107 -397 160 -596
53 -198 99 -369 103 -380 7 -17 6 -17 -17 0 -208 151 -362 221 -515 234 -41 3
-75 8 -75 11 0 3 20 75 44 161 25 86 79 280 121 431 100 363 106 382 111 377
3 -2 33 -109 68 -238z"/>
<path d="M1000 10960 l0 -150 1679 0 1679 0 5 23 c3 12 4 33 2 47 -2 14 -4 71
-4 128 l-1 102 -1680 0 -1680 0 0 -150z"/>
<path d="M19860 10960 l0 -150 1970 0 1970 0 0 150 0 150 -1970 0 -1970 0 0
-150z"/>
</g>
</svg>
