<?xml version="1.0" standalone="no"?>
<!DOCTYPE svg PUBLIC "-//W3C//DTD SVG 20010904//EN"
 "http://www.w3.org/TR/2001/REC-SVG-20010904/DTD/svg10.dtd">
<svg version="1.0" xmlns="http://www.w3.org/2000/svg"
 width="3200.000000pt" height="2480.000000pt" viewBox="0 0 3200.000000 2480.000000"
 preserveAspectRatio="xMidYMid meet">

<g transform="translate(0.000000,2480.000000) scale(0.100000,-0.100000)"
fill="#000000" stroke="none">
<path d="M17200 17345 c0 -16 -7 -18 -119 -35 -42 -6 -86 -19 -101 -30 -16
-11 -34 -20 -42 -20 -37 0 -197 -124 -236 -183 -38 -57 -37 -55 -67 -133 -24
-64 -27 -83 -27 -212 0 -121 3 -148 20 -184 11 -24 23 -56 27 -72 6 -29 21
-51 79 -122 34 -42 134 -119 167 -129 13 -4 34 -16 46 -25 13 -10 44 -21 70
-25 26 -4 70 -17 97 -28 47 -20 67 -22 261 -22 182 1 215 3 250 19 22 10 64
22 94 27 30 4 58 14 62 21 5 7 9 108 9 224 l0 212 25 16 c56 37 -15 48 -118
19 -51 -14 -67 -15 -111 -4 -85 20 -113 23 -120 13 -3 -6 10 -19 29 -31 l35
-20 0 -181 c0 -100 -4 -189 -10 -199 -12 -24 -50 -38 -130 -51 -97 -15 -156
-12 -198 9 -20 10 -49 21 -64 25 -35 8 -156 129 -164 164 -4 15 -17 47 -30 72
-13 25 -24 56 -24 70 0 14 -9 79 -20 145 -32 193 -24 277 36 385 7 14 20 39
29 57 19 40 112 132 139 138 12 2 69 14 129 26 l107 22 98 -23 c53 -13 117
-34 142 -48 44 -24 114 -90 136 -128 10 -16 13 -17 28 -5 13 11 16 32 16 101
0 99 -3 104 -69 115 -24 4 -52 16 -62 26 -17 17 -36 19 -219 19 -170 0 -200
-2 -200 -15z"/>
<path d="M20992 17344 c-12 -21 -79 -35 -187 -39 -49 -2 -93 -4 -97 -4 -18 -2
-6 -32 16 -42 44 -20 59 -74 51 -185 -3 -55 -10 -268 -16 -474 -6 -206 -13
-392 -16 -412 l-5 -38 104 0 c71 0 120 -5 153 -16 41 -14 75 -16 219 -11 191
7 342 36 409 78 69 43 207 186 207 215 0 8 12 38 27 67 27 51 28 56 28 222 0
163 -1 173 -27 230 -15 33 -30 70 -33 83 -4 12 -10 22 -15 22 -5 0 -19 19 -31
41 -28 55 -147 169 -177 169 -5 0 -21 9 -36 21 -15 11 -55 27 -90 34 -35 8
-84 23 -109 34 -40 18 -65 21 -206 21 -135 0 -161 -2 -169 -16z m303 -79 c80
-17 155 -57 202 -107 58 -62 72 -79 86 -105 8 -15 22 -41 31 -58 9 -16 16 -39
16 -50 0 -11 9 -52 20 -90 11 -38 20 -95 20 -125 1 -74 -35 -220 -73 -300 -49
-103 -135 -204 -182 -216 -16 -4 -47 -15 -67 -25 -28 -14 -59 -19 -128 -19
-109 0 -156 16 -167 57 -4 15 -8 247 -8 514 0 537 -2 519 64 519 20 1 47 7 61
15 14 8 30 13 35 11 6 -2 46 -11 90 -21z"/>
<path d="M23242 17335 c-6 -8 -31 -19 -55 -26 -49 -13 -169 -71 -212 -102 -73
-54 -124 -118 -169 -209 -52 -108 -56 -399 -7 -495 11 -23 21 -47 21 -54 0 -6
11 -24 25 -41 14 -16 25 -35 25 -42 0 -15 113 -128 155 -156 40 -27 51 -32
115 -63 102 -49 358 -60 463 -21 161 61 176 69 263 142 136 114 214 282 214
460 -1 131 -44 272 -113 367 -46 63 -134 137 -203 171 -39 19 -78 34 -87 34
-25 0 -97 31 -97 41 0 5 -73 9 -162 9 -128 -1 -166 -4 -176 -15z m302 -110
c64 -40 139 -115 171 -173 15 -26 40 -92 56 -147 40 -137 41 -271 3 -389 -14
-44 -32 -92 -40 -106 -7 -14 -20 -39 -28 -56 -9 -18 -36 -52 -61 -77 -116
-116 -200 -142 -302 -91 -150 75 -259 203 -273 319 -3 33 -17 80 -30 103 -22
41 -23 50 -16 164 4 72 12 131 21 148 8 15 19 49 25 75 6 27 20 60 30 76 11
15 20 32 20 38 0 6 12 25 28 42 95 108 99 109 247 106 92 -2 104 -5 149 -32z"/>
<path d="M9985 17320 l-60 -5 -9 -40 c-4 -22 -15 -57 -22 -78 -17 -44 -18 -77
-4 -77 6 0 15 11 20 25 5 14 14 25 19 25 6 0 20 11 33 24 44 46 115 76 182 76
35 0 67 -5 74 -12 9 -9 12 -136 12 -510 l0 -497 -30 -23 c-17 -12 -29 -27 -27
-33 2 -6 60 -10 158 -10 85 -1 178 -5 207 -9 47 -8 52 -7 52 10 0 11 -14 30
-31 44 l-30 26 -10 169 c-25 464 -29 560 -29 686 0 92 4 139 12 147 7 7 41 12
82 12 62 0 77 -4 114 -30 49 -32 112 -96 112 -111 0 -6 10 -9 23 -7 19 3 22 8
19 38 -5 64 -23 128 -42 145 -16 14 -61 16 -391 18 -206 1 -401 0 -434 -3z"/>
<path d="M11213 17320 c-89 -3 -165 -9 -169 -13 -4 -4 0 -21 9 -36 15 -26 17
-76 17 -524 0 -415 -2 -500 -15 -530 -8 -20 -19 -38 -25 -42 -14 -9 -12 -25 3
-25 8 0 28 7 45 15 43 22 175 35 252 25 78 -9 95 0 81 46 -10 31 -26 187 -37
351 -6 95 -5 102 14 112 13 7 105 11 255 11 214 0 235 -2 250 -18 15 -16 17
-47 17 -226 0 -205 0 -207 -26 -246 -15 -22 -39 -43 -57 -49 -23 -9 -28 -14
-19 -23 9 -9 25 -7 69 7 92 29 198 31 281 6 124 -37 142 -27 76 43 l-44 48 0
499 0 500 30 17 c17 9 29 24 27 32 -3 15 -7 16 -142 10 -33 -2 -99 1 -147 5
-77 6 -89 5 -94 -9 -4 -11 2 -26 17 -42 23 -25 24 -31 27 -231 3 -182 1 -207
-14 -224 -16 -18 -34 -19 -239 -19 -199 0 -223 2 -237 18 -16 18 -38 237 -38
376 0 66 0 66 35 83 59 28 58 64 -3 61 -20 -1 -110 -4 -199 -8z"/>
<path d="M12520 17310 c0 -3 -2 -263 -3 -579 l-2 -573 50 6 c28 4 86 9 130 13
44 3 86 9 94 13 11 6 13 54 12 258 -2 166 2 258 9 272 10 18 20 20 108 20 142
-1 179 -10 219 -56 18 -22 40 -51 48 -66 9 -16 19 -28 24 -28 17 0 18 27 5 95
-11 56 -12 86 -3 151 12 82 8 121 -11 109 -5 -3 -10 -14 -10 -24 0 -10 -7 -25
-16 -32 -9 -8 -27 -31 -40 -51 l-24 -38 -143 0 c-98 0 -147 4 -155 12 -15 15
-17 425 -3 447 13 20 103 24 269 13 132 -8 132 -8 167 -42 19 -18 40 -49 46
-67 11 -35 33 -44 43 -17 9 24 7 137 -3 153 -7 11 -84 13 -410 15 -220 0 -401
-1 -401 -4z"/>
<path d="M14350 17304 c0 -10 15 -29 34 -41 27 -18 34 -29 40 -69 3 -26 6
-246 6 -490 0 -486 5 -443 -54 -492 -9 -7 -16 -22 -16 -34 0 -18 4 -20 33 -14
17 4 119 11 225 15 115 5 197 12 204 19 7 7 -3 12 -38 17 -27 3 -60 11 -74 18
l-25 13 -3 474 c-1 320 1 483 8 501 6 14 27 33 46 42 19 9 34 23 34 32 0 12
-15 15 -82 15 -46 0 -140 3 -210 7 -122 6 -128 5 -128 -13z"/>
<path d="M15523 17292 c-3 -7 2 -21 11 -31 15 -17 17 -66 16 -515 0 -349 -4
-510 -12 -541 -7 -24 -10 -47 -7 -49 3 -3 32 -1 65 4 32 6 89 10 126 10 107 0
98 -26 98 280 0 215 3 270 14 279 10 8 52 10 142 5 127 -6 130 -7 163 -38 18
-17 40 -46 47 -63 14 -32 43 -45 45 -20 1 14 1 272 0 300 -1 28 -28 19 -40
-14 -6 -17 -24 -48 -42 -70 l-31 -39 -137 0 c-93 0 -141 4 -149 12 -14 14 -17
435 -3 457 8 12 42 13 200 8 190 -5 191 -6 224 -33 17 -15 40 -40 50 -56 11
-18 24 -28 35 -26 14 3 16 13 14 68 -2 36 -8 70 -13 75 -7 6 -157 10 -411 10
-317 0 -402 -3 -405 -13z"/>
<path d="M18114 17301 c-9 -10 -3 -39 11 -51 14 -11 15 -74 12 -519 -2 -278
-8 -523 -12 -545 l-7 -38 53 7 c30 5 95 11 144 14 l90 6 5 272 c3 149 8 275
12 278 8 9 184 8 245 -1 46 -7 81 -39 110 -99 18 -38 38 -46 44 -17 2 9 3 86
1 170 -2 121 -6 152 -17 152 -7 0 -17 -10 -21 -22 -3 -13 -20 -44 -37 -71
l-31 -48 -150 3 -151 3 -3 224 c-2 156 1 228 9 237 13 16 127 18 296 5 95 -7
104 -9 130 -37 16 -16 37 -41 46 -56 31 -50 47 -36 47 40 0 37 -4 73 -9 81 -8
12 -73 15 -411 15 -221 1 -404 -1 -406 -3z"/>
<path d="M19261 17296 c-10 -11 -4 -19 31 -38 l43 -23 0 -491 0 -491 -30 -35
c-16 -20 -40 -42 -52 -49 -13 -7 -23 -19 -23 -27 0 -11 9 -13 43 -8 114 18
151 18 202 0 29 -9 60 -14 69 -11 17 7 22 37 6 37 -5 0 -27 16 -47 35 -20 19
-41 35 -45 35 -4 0 -8 202 -8 449 0 404 2 450 16 462 15 12 18 11 28 -5 14
-24 223 -276 245 -296 20 -17 104 -119 143 -170 14 -19 38 -48 54 -65 15 -16
55 -61 88 -100 32 -38 67 -77 76 -85 9 -8 52 -59 96 -114 43 -54 84 -104 89
-110 12 -15 50 -36 64 -36 8 0 11 155 11 509 0 280 3 523 6 541 5 24 15 36 41
47 61 25 35 38 -86 43 -62 3 -121 2 -132 -2 -24 -9 -25 -27 -1 -35 53 -19 52
-12 52 -344 0 -169 -3 -314 -6 -323 -3 -9 -14 -16 -23 -16 -9 0 -77 73 -151
162 -74 89 -146 173 -160 187 -14 14 -88 100 -164 191 -77 91 -146 171 -155
178 -23 18 -304 17 -320 -2z"/>
<path d="M24482 17290 c-107 -3 -171 -9 -170 -15 2 -5 17 -17 33 -25 29 -15
30 -17 36 -105 4 -49 9 -274 13 -499 l7 -409 -26 -27 c-15 -16 -24 -33 -21
-39 5 -7 63 -11 166 -11 l158 0 -4 123 c-3 67 -12 187 -20 266 l-16 143 21 22
c19 18 32 21 109 20 74 -2 96 -6 147 -31 62 -30 127 -85 138 -116 4 -10 13
-17 20 -15 17 6 23 336 6 352 -8 8 -14 6 -23 -7 -24 -39 -73 -85 -116 -109
-61 -35 -207 -49 -247 -23 l-25 17 4 215 c3 173 7 216 18 224 9 5 82 6 180 2
144 -5 169 -9 195 -27 56 -39 84 -69 90 -98 7 -31 30 -47 45 -32 5 5 10 51 12
102 2 74 0 95 -12 102 -15 10 -405 10 -718 0z"/>
<path d="M8160 17215 c-27 -29 -326 -239 -354 -249 -10 -3 -693 -6 -1518 -6
-1294 0 -1499 -2 -1495 -14 4 -11 -6 -9 -46 7 -72 29 -76 33 -70 73 6 38 -2
42 -46 19 -60 -31 -248 -96 -281 -97 -19 -1 -673 2 -1452 7 -1338 8 -1418 7
-1418 -9 0 -25 115 -136 285 -273 319 -259 452 -367 497 -407 l47 -41 -6
-3627 -6 -3628 -186 -153 c-102 -84 -206 -168 -231 -187 -25 -19 -87 -70 -138
-112 -51 -43 -103 -78 -115 -79 -112 -4 -149 -13 -397 -103 -145 -52 -267 -99
-273 -105 -6 -6 43 -55 132 -132 78 -67 141 -126 141 -131 0 -4 5 -8 11 -8 6
0 28 -15 48 -33 l37 -34 905 -6 c660 -5 3982 -10 5280 -7 31 0 38 5 52 35 9
20 17 42 17 51 0 8 7 28 15 44 8 16 48 172 89 347 84 359 196 835 322 1373 47
201 135 576 195 834 60 258 111 471 114 474 3 3 125 8 271 10 l265 5 32 28
c52 47 239 185 275 203 38 19 52 14 52 -19 0 -13 9 -63 20 -112 10 -48 46
-209 79 -358 73 -327 227 -1028 236 -1071 6 -31 3 -34 -122 -126 -177 -130
-340 -244 -440 -306 -51 -33 -52 -33 -228 -41 -97 -5 -179 -12 -182 -15 -6 -6
54 -276 63 -285 3 -3 168 -7 367 -8 433 -2 2185 -6 2208 -4 11 1 19 14 23 37
9 43 -2 57 -189 254 -113 120 -137 150 -119 150 3 0 17 -9 31 -20 49 -38 32
-14 -54 75 -134 141 -262 315 -419 571 -126 207 -151 259 -184 388 -16 61 -38
134 -50 161 -60 139 -151 438 -184 605 -21 104 -53 329 -61 425 -4 44 -13 109
-21 145 -10 44 -17 153 -21 340 -5 261 -3 324 28 705 10 126 34 316 46 363 3
13 1 22 -6 22 -7 0 -18 15 -25 33 -17 40 -158 602 -257 1026 -11 46 -22 88
-25 92 -2 4 -9 29 -15 56 -22 104 -126 510 -203 793 -31 112 -56 214 -56 226
0 13 -12 31 -27 43 -16 11 -32 24 -37 28 -9 8 -26 -6 -202 -165 l-104 -93
-621 7 c-529 6 -622 5 -630 -7 -10 -17 -62 -1 -219 71 -58 26 -130 59 -161 73
l-56 25 -8 221 -7 221 84 113 c84 113 99 132 153 196 17 20 57 70 90 111 33
41 63 77 66 80 3 3 53 66 112 140 58 74 158 200 222 279 l116 145 -4 98 c-2
54 -7 101 -10 105 -4 3 -7 36 -7 72 0 85 -9 99 -40 66z m-3472 -605 c102 -72
159 -114 194 -145 19 -16 74 -59 123 -95 48 -36 106 -81 129 -101 22 -20 57
-47 76 -60 94 -64 191 -146 197 -166 5 -22 9 -23 139 -23 l134 0 -2 -1422 -3
-1423 -420 0 c-684 0 -1505 8 -1509 14 -2 3 -6 651 -7 1439 l-4 1433 25 20
c14 10 105 70 203 132 98 61 226 144 285 182 59 39 162 106 229 149 67 43 127
84 134 92 15 19 12 20 77 -26z m-1835 -995 c4 -8 2 -17 -3 -20 -6 -4 -10 -4
-10 -1 0 2 -3 11 -6 20 -3 9 -2 16 4 16 5 0 12 -7 15 -15z m3547 -11 c0 -8 -4
-14 -9 -14 -11 0 -22 26 -14 34 9 9 23 -3 23 -20z m-3535 -85 c7 -66 24 -216
45 -394 11 -88 28 -236 40 -330 42 -357 61 -514 76 -635 8 -69 17 -145 19
-170 2 -25 9 -88 15 -140 13 -104 13 -105 -43 -201 -17 -31 -57 -99 -87 -153
-30 -53 -58 -96 -62 -96 -5 0 -8 91 -8 203 0 111 -2 308 -5 437 -2 129 -7 485
-10 790 -4 305 -8 597 -9 648 -1 51 0 95 3 97 10 11 22 -14 26 -56z m3539 35
c3 -9 6 -34 6 -57 0 -23 7 -88 15 -144 8 -56 17 -128 20 -160 2 -32 11 -112
19 -178 15 -123 26 -210 112 -930 41 -346 41 -346 1 -410 -7 -11 -23 -38 -35
-60 -13 -22 -33 -58 -47 -80 -13 -22 -34 -61 -47 -87 -12 -27 -28 -48 -34 -48
-8 0 -12 88 -13 308 -2 169 -4 395 -6 502 -13 760 -16 1360 -7 1360 5 0 13 -7
16 -16z m1056 -306 c29 -35 58 -67 64 -73 6 -5 29 -32 51 -60 22 -27 96 -110
165 -185 69 -74 143 -155 165 -180 l41 -45 142 3 c110 2 142 0 142 -10 -1 -14
-10 -50 -70 -283 -89 -341 -167 -651 -375 -1485 -119 -476 -232 -928 -251
-1005 -19 -77 -53 -212 -75 -300 -22 -88 -45 -182 -53 -210 -11 -44 -14 24
-19 520 -13 1115 -4 3375 13 3375 4 0 31 -28 60 -62z m1249 -1678 c11 -69 27
-159 36 -200 32 -151 267 -1200 307 -1370 23 -96 43 -187 46 -202 l4 -28 -433
1 c-340 0 -430 3 -416 12 10 7 80 56 155 109 75 54 144 98 152 98 12 0 12 2 2
9 -11 7 -5 42 29 180 28 110 47 171 56 171 7 0 10 6 7 14 -3 7 2 78 10 157 12
118 13 237 7 664 -5 286 -6 526 -3 534 9 23 18 -11 41 -149z m-5639 -944 c0
-2 -22 -37 -49 -78 -26 -40 -69 -106 -95 -146 -26 -40 -51 -70 -57 -67 -13 8
-12 252 1 260 19 12 200 40 200 31z m3534 -18 c-4 -7 -31 -49 -59 -93 -29 -44
-67 -104 -85 -133 -19 -29 -38 -51 -44 -49 -7 2 -12 51 -14 129 l-2 125 42 11
c91 24 173 29 162 10z m-930 -495 c4 -137 4 -893 0 -1682 l-7 -1435 -25 -28
c-14 -15 -30 -28 -35 -28 -5 0 -26 -16 -46 -35 -74 -73 -126 -118 -163 -143
-21 -13 -38 -28 -38 -32 0 -4 -22 -22 -49 -39 -27 -18 -52 -38 -55 -46 -3 -8
-11 -15 -17 -15 -7 0 -21 -9 -33 -20 -43 -40 -77 -70 -81 -70 -2 0 -15 -10
-28 -22 -22 -21 -144 -112 -173 -131 -8 -4 -61 23 -140 74 -70 44 -137 85
-148 89 -12 5 -77 45 -146 89 -69 44 -222 141 -340 216 -118 75 -261 166 -318
202 l-102 65 2 1492 3 1491 819 3 c546 1 823 -1 831 -8 16 -13 26 -4 160 143
59 64 110 117 114 117 4 0 11 -111 15 -247z m-2570 -611 c4 -7 -30 -383 -49
-542 -3 -25 -10 -94 -15 -155 -5 -60 -25 -258 -44 -440 -19 -181 -44 -432 -57
-557 -23 -226 -39 -291 -39 -160 -1 67 -6 624 -14 1404 -4 332 -2 409 9 418 7
6 49 17 92 24 99 17 111 18 117 8z m3542 -7 c4 -9 -3 -107 -15 -218 -12 -111
-39 -377 -61 -592 -78 -766 -74 -729 -90 -905 -25 -281 -40 -282 -41 -2 0 114
-2 306 -4 427 -2 121 -5 451 -6 734 -3 509 -2 515 18 528 11 7 33 16 49 18 16
2 52 9 79 14 28 5 54 9 58 10 4 0 10 -6 13 -14z m-199 -1957 c-3 -8 -6 -5 -6
6 -1 11 2 17 5 13 3 -3 4 -12 1 -19z"/>
<path d="M15255 16393 c-24 -69 -135 -155 -226 -174 -27 -6 -49 -15 -49 -19 0
-23 53 -34 174 -38 160 -5 156 -9 156 136 0 143 -24 184 -55 95z"/>
<path d="M13401 16401 c-6 -11 -11 -26 -11 -33 0 -20 -45 -78 -77 -99 -15 -10
-35 -23 -43 -29 -8 -5 -34 -14 -57 -20 -53 -13 -55 -26 -5 -39 46 -12 203 -17
220 -7 18 11 17 220 -2 235 -12 10 -17 8 -25 -8z"/>
<path d="M16396 16337 c-13 -35 -28 -52 -74 -81 -31 -20 -66 -36 -78 -36 -11
0 -29 -6 -40 -14 -18 -14 -18 -15 6 -24 14 -5 68 -12 121 -16 129 -8 131 -7
127 114 -3 88 -5 95 -24 98 -17 2 -24 -6 -38 -41z"/>
<path d="M18986 16336 c-19 -49 -96 -109 -156 -121 -100 -21 -56 -47 88 -53
72 -3 107 -1 117 8 16 13 21 140 9 188 -10 37 -39 27 -58 -22z"/>
<path d="M22010 15418 c0 -7 -21 -26 -48 -42 -26 -16 -85 -57 -132 -90 l-85
-61 -825 -7 c-454 -4 -874 -10 -934 -13 l-108 -6 -66 -50 c-35 -28 -70 -48
-76 -45 -112 49 -302 120 -358 135 -208 55 -478 47 -782 -24 -88 -21 -300
-104 -396 -157 -295 -161 -526 -373 -731 -672 -33 -48 -59 -88 -59 -91 0 -3
-8 -14 -17 -25 -27 -31 -173 -309 -204 -386 -99 -253 -171 -487 -218 -709 -48
-228 -61 -324 -91 -659 -18 -194 -10 -683 10 -671 12 7 20 -22 20 -69 0 -55
24 -240 51 -386 88 -487 249 -905 485 -1257 58 -87 114 -167 125 -179 10 -11
19 -29 19 -39 0 -10 3 -15 7 -12 3 4 21 -14 38 -41 18 -26 53 -70 79 -98 25
-29 46 -56 47 -60 0 -5 12 -19 27 -31 15 -13 56 -48 91 -79 65 -56 195 -140
286 -187 190 -95 493 -156 790 -157 203 0 386 26 590 85 44 13 81 22 82 21 4
-4 -387 -279 -479 -338 l-90 -57 2063 2 2064 2 8 50 c7 47 -8 903 -18 1008 -3
39 -1 48 9 44 12 -5 12 0 4 26 -74 240 -88 389 -88 952 -1 442 -11 649 -33
672 -4 3 -7 -1 -7 -10 0 -22 -20 -33 -31 -16 -7 11 -11 10 -23 -7 -9 -12 -57
-52 -108 -90 -51 -38 -96 -72 -99 -77 -3 -5 -9 -43 -13 -85 -3 -42 -17 -108
-31 -147 -25 -72 -159 -490 -260 -810 -31 -99 -85 -270 -120 -380 -76 -239
-96 -305 -89 -305 2 0 -2 -14 -11 -30 l-16 -30 -429 0 c-237 0 -430 2 -430 5
0 2 55 41 123 86 67 46 142 98 167 116 l44 34 2 2337 c1 1285 3 2371 3 2412
l1 75 73 57 c80 64 268 234 279 252 7 13 -28 269 -42 304 -10 23 -40 31 -40
10z m-1844 -485 c21 -57 65 -142 91 -177 18 -25 21 -25 156 -26 l137 0 0 -47
c1 -27 0 -996 0 -2155 -1 -1444 3 -2108 10 -2113 14 -9 14 -421 0 -430 -7 -4
-10 -62 -9 -156 1 -175 11 -155 -126 -264 -274 -219 -356 -276 -439 -305 -44
-15 -116 -41 -158 -57 -42 -15 -80 -25 -83 -21 -4 4 85 98 198 210 l205 203
-9 77 c-5 42 -10 467 -11 944 l-3 867 -85 19 c-47 10 -100 21 -117 25 l-33 5
0 -44 c0 -62 -22 -141 -69 -242 -23 -48 -41 -89 -41 -91 0 -3 -22 -52 -50
-110 -27 -58 -50 -107 -50 -109 0 -16 -252 -530 -262 -534 -4 -2 -8 -12 -8
-22 0 -10 -5 -20 -11 -22 -5 -2 -11 -11 -13 -20 -1 -9 -9 -25 -18 -35 -9 -10
-17 -22 -18 -28 -3 -17 -34 -65 -42 -65 -4 0 -8 -5 -8 -11 0 -14 -91 -128
-146 -183 -62 -63 -150 -123 -207 -142 -38 -13 -82 -18 -162 -18 -93 0 -123 5
-192 28 l-82 27 17 27 c46 73 68 102 80 104 8 2 0 22 -24 56 -61 92 -154 301
-184 417 -5 17 -17 64 -28 105 -33 121 -89 413 -112 575 -11 83 -25 175 -30
205 -44 252 -42 973 4 1555 16 195 26 253 87 493 50 197 70 259 127 397 82
197 159 303 295 410 76 59 83 59 122 -3 16 -26 64 -90 105 -142 42 -52 102
-130 135 -174 33 -43 74 -96 90 -117 17 -21 72 -93 123 -161 150 -200 322
-424 393 -513 36 -46 88 -116 114 -154 37 -54 56 -73 84 -82 20 -6 52 -20 73
-30 32 -17 37 -17 49 -3 7 9 34 26 59 39 l47 24 6 63 c3 35 2 275 -3 533 -12
630 -12 1445 -1 1445 5 0 17 -21 27 -47z"/>
<path d="M17458 15410 c-4 -12 -205 -170 -251 -199 l-37 -23 -630 5 c-347 2
-630 0 -630 -5 0 -23 -48 -1 -150 67 -78 53 -118 74 -131 70 -10 -4 -75 -33
-144 -66 l-125 -60 -907 1 c-597 0 -903 -3 -893 -10 11 -7 3 -10 -29 -10 -63
0 -172 20 -198 36 -12 8 -28 14 -35 14 -11 0 -110 -116 -139 -162 -4 -6 -36
-2 -85 10 -444 116 -728 140 -1049 91 -234 -36 -462 -132 -695 -292 -106 -73
-297 -261 -394 -387 -458 -595 -695 -1479 -655 -2441 27 -623 117 -1049 320
-1501 83 -184 208 -390 352 -581 37 -49 67 -91 67 -94 0 -3 21 -32 48 -64 26
-32 58 -73 71 -90 13 -17 38 -40 56 -52 17 -12 70 -51 116 -86 140 -106 286
-171 477 -213 87 -19 130 -21 422 -22 310 0 371 3 595 35 95 14 228 44 300 69
l60 20 -250 -250 -250 -250 150 0 c83 0 1136 0 2340 -1 1205 0 2239 0 2299 0
l109 1 -7 63 c-7 71 -46 184 -116 342 -10 22 -34 81 -55 130 -20 50 -45 99
-55 110 -27 29 -145 206 -207 310 -30 50 -99 180 -153 290 -89 181 -126 269
-195 463 -13 35 -29 71 -37 80 -20 22 -86 146 -197 367 -50 99 -105 207 -124
240 -52 94 -281 525 -382 720 -34 66 -98 185 -141 265 -78 144 -101 191 -123
262 -15 46 -11 53 104 208 47 63 113 155 147 205 34 49 75 108 92 130 55 73
324 437 421 570 225 308 326 445 420 568 55 73 111 148 125 167 13 19 67 94
120 165 53 72 127 175 165 230 38 55 91 129 118 164 l50 64 -5 149 c-4 89 -10
154 -17 162 -14 17 -49 27 -53 16z m-1715 -495 c67 -52 132 -104 145 -114 17
-15 44 -21 120 -26 96 -6 201 -21 209 -29 5 -4 -22 -43 -187 -271 -44 -60
-132 -184 -195 -275 -64 -91 -152 -214 -196 -275 -43 -60 -113 -157 -154 -215
-42 -58 -90 -125 -108 -149 -36 -49 -243 -343 -369 -523 -79 -114 -108 -143
-94 -95 4 12 11 47 15 77 7 46 43 181 80 305 5 17 26 91 47 165 30 111 44 143
74 180 45 55 170 239 170 251 0 5 -6 9 -14 9 -11 0 -15 39 -19 193 -10 302 -4
610 10 614 7 3 84 65 170 138 87 73 161 134 166 134 4 1 62 -42 130 -94z
m-2190 25 c7 -11 59 -67 114 -125 l101 -105 119 0 c65 0 129 -3 142 -7 l24 -6
-6 -2546 -7 -2546 -47 -32 c-95 -63 -289 -197 -338 -234 -27 -20 -70 -44 -95
-52 -25 -8 -81 -29 -124 -46 -44 -17 -81 -30 -82 -28 -1 1 5 26 14 56 15 47
29 65 112 142 l95 88 -6 323 c-4 178 -10 623 -14 991 -6 465 -12 670 -19 676
-21 18 -164 61 -180 55 -9 -3 -19 -18 -22 -33 -19 -91 -32 -130 -89 -270 -103
-251 -195 -472 -222 -531 -14 -30 -33 -76 -43 -101 -21 -52 -124 -260 -163
-329 -14 -25 -36 -63 -48 -85 -59 -107 -201 -257 -297 -316 -148 -90 -290
-101 -462 -37 -86 33 -87 35 -40 107 l41 63 -19 37 c-10 20 -30 59 -44 86 -80
152 -160 404 -209 650 -139 714 -169 1379 -95 2130 28 285 113 677 194 901 55
152 112 252 182 324 74 75 185 154 205 146 17 -6 61 -63 343 -441 66 -88 155
-205 197 -260 42 -55 102 -134 133 -175 30 -41 101 -135 156 -208 56 -73 126
-170 158 -215 55 -80 58 -83 129 -109 l73 -27 56 48 55 48 8 104 c9 112 1
1810 -9 1872 -7 41 6 49 29 17z m1939 -4500 c42 -67 137 -221 192 -312 23 -37
89 -143 147 -235 58 -93 116 -188 130 -212 l24 -43 -55 -50 c-130 -117 -326
-268 -355 -272 -16 -3 -68 -10 -115 -16 -47 -6 -95 -13 -107 -16 -33 -7 -28 9
21 63 61 67 144 171 124 155 -22 -18 -48 0 -143 100 l-70 73 -4 253 c-3 265
-3 265 41 241 20 -11 20 -10 17 254 l-4 265 61 -96 c34 -54 77 -122 96 -152z"/>
<path d="M12088 9993 c6 -2 18 -2 25 0 6 3 1 5 -13 5 -14 0 -19 -2 -12 -5z"/>
<path d="M22763 15047 c169 -166 307 -308 307 -315 0 -9 23 -11 98 -6 53 3
123 2 155 -3 l58 -8 -1 -1996 c0 -1352 3 -2035 10 -2115 28 -302 109 -557 253
-793 l55 -90 -91 -68 c-121 -89 -147 -115 -147 -145 0 -40 244 -271 370 -349
329 -205 788 -295 1242 -245 331 37 565 147 796 373 67 66 114 126 184 233
100 154 122 197 158 300 12 36 25 74 30 85 9 24 24 90 46 210 15 82 17 290 18
2385 2 1789 5 2300 14 2318 14 24 52 30 52 8 0 -16 126 -30 226 -25 l59 3 6
-35 c3 -18 3 -1181 1 -2584 l-4 -2550 -31 -28 c-18 -15 -57 -47 -87 -70 -53
-40 -234 -194 -295 -249 -16 -16 -59 -39 -95 -53 -36 -14 -103 -44 -150 -68
l-85 -42 1 -45 c3 -90 14 -128 41 -135 30 -7 2035 -7 2113 1 30 3 73 9 95 14
22 5 69 14 105 20 36 7 83 18 105 25 22 7 60 19 85 25 150 42 358 132 434 188
27 20 64 46 82 57 125 77 274 213 386 350 147 183 286 464 322 655 9 47 22
112 28 145 19 93 15 519 -5 623 -55 275 -99 383 -254 622 -56 85 -105 144
-187 226 -62 60 -130 123 -152 139 -21 16 -52 42 -68 56 -15 15 -48 38 -72 51
-24 12 -44 28 -44 35 0 6 25 36 56 65 50 47 195 233 233 298 76 131 163 354
215 550 25 96 58 418 50 490 -2 19 -8 89 -15 155 -11 122 -55 320 -83 377 -9
17 -16 35 -16 41 0 20 -95 195 -157 292 -80 123 -130 182 -258 309 -167 165
-278 248 -510 381 -136 78 -395 205 -417 205 -9 0 -21 -15 -28 -32 -7 -18 -29
-66 -48 -106 -35 -71 -37 -73 -66 -67 -17 4 -42 10 -56 16 -14 5 -74 21 -135
35 l-110 26 -565 4 c-1028 8 -1780 9 -1780 2 0 -3 -24 -6 -52 -6 -29 0 -96 -5
-148 -11 -123 -14 -330 -14 -330 -1 0 7 -302 10 -885 10 -650 0 -885 -3 -885
-11 0 -22 -95 -2 -215 45 -66 26 -154 61 -195 77 l-75 28 308 -302z m2209 -89
c13 -13 79 -59 146 -103 94 -62 122 -86 127 -107 l7 -28 137 0 138 0 -4 -2157
c-2 -1448 -7 -2186 -14 -2243 -34 -270 -159 -426 -404 -504 -117 -37 -225 -57
-225 -42 0 5 -27 139 -35 174 -3 13 -13 22 -24 22 -10 0 -24 6 -30 13 -6 8
-31 24 -57 37 -25 13 -51 33 -57 44 -9 16 -12 572 -12 2331 0 1271 -2 2320 -5
2331 -4 18 17 40 118 122 67 56 130 108 138 117 20 20 27 19 56 -7z m2891
-768 c46 -31 63 -37 52 -20 -4 6 32 10 99 10 l106 0 43 -55 c61 -78 132 -225
158 -330 21 -80 23 -115 24 -310 0 -213 -5 -290 -20 -329 -5 -10 -8 -31 -9
-46 -1 -16 -3 -26 -5 -24 -5 5 -42 -92 -45 -118 -1 -9 -7 -22 -13 -30 -6 -7
-14 -25 -18 -40 -4 -15 -13 -32 -21 -39 -8 -6 -12 -15 -9 -19 6 -10 -110 -145
-178 -206 -105 -93 -274 -170 -432 -198 -107 -19 -108 -19 -99 -5 10 16 303
249 314 249 5 0 2 16 -6 35 -12 30 -14 143 -14 748 1 391 4 722 7 735 7 29 13
28 66 -8z m75 -2764 c101 -64 100 -64 198 -12 48 25 90 46 94 46 13 0 119
-110 150 -155 65 -95 110 -207 135 -338 21 -109 21 -371 0 -465 -17 -73 -53
-181 -67 -197 -4 -5 -8 -17 -8 -27 0 -10 -3 -18 -7 -18 -5 0 -17 -18 -27 -40
-10 -22 -27 -48 -37 -59 -11 -11 -19 -23 -19 -25 0 -3 -21 -29 -47 -57 -81
-87 -231 -180 -369 -229 -110 -38 -271 -77 -359 -86 l-70 -7 25 20 c63 49 298
213 306 213 5 0 6 49 2 112 -9 153 -9 537 -1 991 5 303 9 377 20 377 7 0 43
-20 81 -44z"/>
<path d="M29840 15055 c-85 -14 -133 -40 -199 -106 -68 -67 -101 -128 -112
-206 -12 -77 -3 -220 14 -250 7 -11 22 -38 34 -59 41 -73 122 -140 196 -161
126 -36 155 -41 193 -32 77 16 160 44 189 64 48 33 143 136 150 164 4 14 15
44 26 68 25 56 26 172 0 228 -10 22 -21 53 -25 70 -10 41 -87 128 -151 171
-43 28 -72 38 -142 50 -48 8 -90 13 -93 13 -3 -1 -39 -7 -80 -14z m130 -65
c136 -35 208 -80 243 -149 9 -20 24 -47 32 -61 17 -28 21 -213 6 -252 -11 -31
-62 -88 -77 -88 -16 0 -100 84 -131 131 l-25 38 20 28 c11 15 29 37 41 47 31
28 30 134 -1 171 -31 35 -111 55 -220 55 -49 0 -88 4 -88 8 0 5 21 22 48 39
66 43 93 49 152 33z m-237 -147 c11 -7 9 -352 -3 -374 -13 -24 -61 -25 -82 -1
-9 9 -19 28 -23 42 -4 14 -14 34 -21 45 -22 31 -18 148 6 195 11 22 20 46 20
55 0 28 38 56 68 49 15 -4 30 -9 35 -11z m230 -39 l29 -35 -27 -40 c-28 -40
-50 -47 -86 -29 -26 15 -28 114 -1 129 31 19 57 12 85 -25z m-49 -246 c14 -6
28 -20 32 -32 3 -12 15 -30 25 -41 90 -98 109 -120 109 -131 0 -23 -72 -36
-173 -33 -72 3 -100 8 -112 20 -26 26 5 49 66 49 63 0 69 14 30 76 -30 46 -39
83 -24 97 9 10 18 9 47 -5z"/>
</g>
</svg>
