<?xml version="1.0" standalone="no"?>
<!DOCTYPE svg PUBLIC "-//W3C//DTD SVG 20010904//EN"
 "http://www.w3.org/TR/2001/REC-SVG-20010904/DTD/svg10.dtd">
<svg version="1.0" xmlns="http://www.w3.org/2000/svg"
 width="2480.000000pt" height="3200.000000pt" viewBox="0 0 2480.000000 3200.000000"
 preserveAspectRatio="xMidYMid meet">

<g transform="translate(0.000000,3200.000000) scale(0.100000,-0.100000)"
fill="#000000" stroke="none">
<path d="M15380 22274 c-19 -8 -50 -19 -70 -24 -19 -5 -69 -19 -110 -30 -41
-12 -115 -32 -165 -46 -190 -51 -363 -103 -550 -167 -194 -65 -191 -60 -114
-199 113 -201 173 -286 277 -392 126 -128 276 -217 414 -245 95 -20 188 9 249
76 85 95 151 396 170 777 9 184 8 201 -9 230 -21 36 -44 41 -92 20z"/>
<path d="M21351 20114 c0 -11 3 -14 6 -6 3 7 2 16 -1 19 -3 4 -6 -2 -5 -13z"/>
</g>
</svg>
